<svg width="18" height="17" viewBox="0 0 18 17" fill="none" xmlns="http://www.w3.org/2000/svg">
<path fill-rule="evenodd" clip-rule="evenodd" d="M0.390625 0H17.1223V16.7317H0.390625V0ZM8.83927 6.29632C9.5516 6.34055 10.1308 6.94671 10.1308 7.66873C10.1308 8.41873 9.50586 9.02271 8.75585 9.02271C8.72818 9.02271 8.7007 9.02189 8.67345 9.02026C8.70101 9.02192 8.72879 9.02277 8.75678 9.02277C9.50679 9.02277 10.1318 8.41879 10.1318 7.66878C10.1318 6.94645 9.55203 6.34008 8.83927 6.29632ZM8.75585 6.68967C8.23492 6.68967 7.79746 7.12716 7.79746 7.66872C7.79746 8.17048 8.20334 8.59479 8.69869 8.62535C8.20376 8.59432 7.79839 8.17022 7.79839 7.66877C7.79839 7.12722 8.23585 6.68973 8.75678 6.68973C8.77672 6.68973 8.79652 6.69032 8.81616 6.69149C8.79622 6.69028 8.77611 6.68967 8.75585 6.68967ZM10.3708 7.66878C10.3708 6.78676 9.63876 6.05477 8.75678 6.05477C7.87007 6.05477 7.16378 6.79164 7.16378 7.66878C7.16378 8.55073 7.87476 9.26179 8.75678 9.26179C9.63399 9.26179 10.3708 8.55556 10.3708 7.66878ZM8.03742 7.66877C8.03742 7.2559 8.37116 6.92875 8.75678 6.92875C9.16633 6.92875 9.49681 7.25924 9.49681 7.66877C9.49681 8.05436 9.16964 8.38814 8.75678 8.38814C8.36789 8.38814 8.03742 8.05769 8.03742 7.66877ZM9.05219 4.66225C10.1589 4.73557 11.1343 5.21671 11.8808 5.94396C12.6723 6.73549 13.1513 7.83947 13.1513 9.04796C13.1513 10.2769 12.6723 11.3604 11.8808 12.1729C11.0683 12.9644 9.98527 13.4434 8.75585 13.4434C8.65462 13.4434 8.55411 13.4401 8.45446 13.4334C8.55454 13.4401 8.65549 13.4435 8.75717 13.4435C9.98658 13.4435 11.0696 12.9645 11.8821 12.173C12.6736 11.3605 13.1526 10.277 13.1526 9.04805C13.1526 7.83955 12.6736 6.73558 11.8821 5.94405C11.1353 5.21651 10.1595 4.73528 9.05219 4.66225ZM5.63142 11.5258C5.63132 11.5262 5.63121 11.5265 5.6311 11.5269C5.08957 10.8604 4.75613 9.98543 4.75613 9.04796C4.75613 7.9439 5.21426 6.94393 5.92269 6.2149C6.65172 5.50677 7.65169 5.04834 8.75575 5.04834C8.84438 5.04834 8.93235 5.05129 9.01955 5.05709C8.93278 5.05135 8.84525 5.04843 8.75706 5.04843C7.65301 5.04843 6.65304 5.50686 5.924 6.21499C5.21557 6.94402 4.75744 7.94399 4.75744 9.04805C4.75744 9.87995 5.02002 10.6626 5.45757 11.2941C5.51279 11.3738 5.5708 11.4511 5.63142 11.5258ZM11.9023 11.5258C11.902 11.5262 11.9017 11.5265 11.9013 11.5269C11.644 10.6962 10.8795 10.0717 9.98216 10.0112C10.7835 10.0648 11.4792 10.5681 11.8025 11.2666C11.8413 11.3504 11.8747 11.4369 11.9023 11.5258ZM9.95654 10.4059C9.91765 10.4033 9.87843 10.4019 9.8389 10.4019H7.69338C6.79749 10.4019 6.06846 11.0479 5.94345 11.9019C6.61287 12.5524 7.51073 12.9741 8.49186 13.0387C7.51124 12.9738 6.61389 12.5522 5.94477 11.9019C6.06977 11.048 6.79881 10.402 7.69469 10.402H9.84021C9.87929 10.402 9.91808 10.4033 9.95654 10.4059ZM5.48415 5.77504C6.26566 4.99349 7.33698 4.48105 8.51814 4.41974V4.41354H8.75717C10.0539 4.41354 11.1959 4.94185 12.0489 5.77284L12.0511 5.77502L12.0511 5.77503C12.8871 6.61106 13.3917 7.7757 13.3917 9.04805C13.3917 10.342 12.8864 11.4846 12.0533 12.3398L12.0489 12.3442L12.0489 12.3442C11.1937 13.1773 10.0516 13.6826 8.75717 13.6826C7.48527 13.6826 6.3202 13.178 5.48416 12.342L5.48196 12.3398C4.65095 11.4868 4.12267 10.3453 4.12267 9.04805C4.12267 7.77327 4.65024 6.60899 5.48415 5.77504ZM9.84021 10.6411C10.5541 10.6411 11.1567 11.1398 11.3109 11.8194C10.6535 12.432 9.75149 12.8085 8.75717 12.8085C7.78359 12.8085 6.88087 12.433 6.2036 11.8172C6.3584 11.1402 6.96029 10.6411 7.69469 10.6411H9.84021ZM7.69469 9.76741C6.77502 9.76748 5.96749 10.2819 5.5729 11.0357C5.21111 10.4656 4.99647 9.77698 4.99647 9.04805C4.99647 8.01263 5.42556 7.07211 6.09302 6.38404C6.78113 5.71681 7.72168 5.28745 8.75706 5.28745C9.79311 5.28745 10.7342 5.71707 11.4223 6.38522C12.1067 7.07021 12.5177 8.00925 12.5177 9.04805C12.5177 9.78193 12.3147 10.4721 11.957 11.0412C11.5521 10.287 10.7477 9.76741 9.84021 9.76741H7.69486H7.69469Z" fill="#DF32AF"/>
</svg>
