<svg width="51" height="20" viewBox="0 0 51 20" fill="none" xmlns="http://www.w3.org/2000/svg">
<rect width="50.287" height="20" fill="#24AEA6"/>
<path d="M24.0619 10.33C24.2919 9.6 24.5019 8.88 24.7119 8.12H24.7519C24.9519 8.88 25.1719 9.6 25.4019 10.33L25.7119 11.33H23.7519L24.0619 10.33ZM22.0619 14H22.9119L23.5419 12H25.9219L26.5419 14H27.4219L25.2119 7.44H24.2719L22.0619 14ZM30.3179 14H31.1579V8.14H33.3179V7.44H28.1579V8.14H30.3179V14ZM34.274 14H35.154L36.134 12.23C36.304 11.91 36.474 11.58 36.664 11.18H36.704C36.924 11.58 37.104 11.91 37.284 12.23L38.274 14H39.194L37.234 10.65L39.064 7.44H38.184L37.284 9.12C37.124 9.42 36.994 9.69 36.814 10.07H36.774C36.564 9.69 36.414 9.42 36.244 9.12L35.324 7.44H34.404L36.234 10.61L34.274 14Z" fill="white"/>
<rect width="1.21107" height="1.21107" transform="matrix(4.37114e-08 1 1 -4.37114e-08 12 14)" fill="white"/>
<rect width="1.21107" height="1.21107" transform="matrix(4.37114e-08 1 1 -4.37114e-08 11 14)" fill="white"/>
<rect width="1.21107" height="1.21107" transform="matrix(4.37114e-08 1 1 -4.37114e-08 10 14)" fill="white"/>
<rect width="1.21107" height="1.21107" transform="matrix(4.37114e-08 1 1 -4.37114e-08 10 10)" fill="white"/>
<rect width="1.21107" height="1.21107" transform="matrix(4.37114e-08 1 1 -4.37114e-08 10 9)" fill="white"/>
<rect width="1.21107" height="1.21107" transform="matrix(4.37114e-08 1 1 -4.37114e-08 9 13)" fill="white"/>
<rect width="1.21107" height="1.21107" transform="matrix(4.37114e-08 1 1 -4.37114e-08 8 12)" fill="white"/>
<rect width="1.21107" height="1.21107" transform="matrix(4.37114e-08 1 1 -4.37114e-08 7 11)" fill="white"/>
<rect width="1.21107" height="1.21107" transform="matrix(4.37114e-08 1 1 -4.37114e-08 7 10)" fill="white"/>
<rect width="1.21107" height="1.21107" transform="matrix(4.37114e-08 1 1 -4.37114e-08 7 9)" fill="white"/>
<rect width="1.21107" height="1.21107" transform="matrix(4.37114e-08 1 1 -4.37114e-08 7 8)" fill="white"/>
<rect width="1.21107" height="1.21107" transform="matrix(4.37114e-08 1 1 -4.37114e-08 7 7)" fill="white"/>
<rect width="1.21107" height="1.21107" transform="matrix(4.37114e-08 1 1 -4.37114e-08 7 6)" fill="white"/>
<rect width="1.21107" height="1.21107" transform="matrix(4.37114e-08 1 1 -4.37114e-08 8 6)" fill="white"/>
<rect width="1.21107" height="1.21107" transform="matrix(4.37114e-08 1 1 -4.37114e-08 9 6)" fill="white"/>
<rect width="1.21107" height="1.21107" transform="matrix(4.37114e-08 1 1 -4.37114e-08 10 6)" fill="white"/>
<rect width="1.21107" height="1.21107" transform="matrix(4.37114e-08 1 1 -4.37114e-08 11 6)" fill="white"/>
<rect width="1.21107" height="1.21107" transform="matrix(4.37114e-08 1 1 -4.37114e-08 12 6)" fill="white"/>
<rect width="1.21107" height="1.21107" transform="matrix(4.37114e-08 1 1 -4.37114e-08 13 6)" fill="white"/>
<rect width="1.21107" height="1.21107" transform="matrix(4.37114e-08 1 1 -4.37114e-08 13 7)" fill="white"/>
<rect width="1.21107" height="1.21107" transform="matrix(4.37114e-08 1 1 -4.37114e-08 13 8)" fill="white"/>
<rect width="1.21107" height="1.21107" transform="matrix(4.37114e-08 1 1 -4.37114e-08 13 9)" fill="white"/>
<rect width="1.21107" height="1.21107" transform="matrix(4.37114e-08 1 1 -4.37114e-08 13 10)" fill="white"/>
<rect width="1.21107" height="1.21107" transform="matrix(4.37114e-08 1 1 -4.37114e-08 13 11)" fill="white"/>
<rect width="1.21107" height="1.21107" transform="matrix(4.37114e-08 1 1 -4.37114e-08 13 12)" fill="white"/>
<rect width="1.21107" height="1.21107" transform="matrix(4.37114e-08 1 1 -4.37114e-08 13 13)" fill="white"/>
<rect width="1.21107" height="1.21107" transform="matrix(4.37114e-08 1 1 -4.37114e-08 13 14)" fill="white"/>
</svg>
