<svg width="58" height="5" viewBox="0 0 58 5" fill="none" xmlns="http://www.w3.org/2000/svg">
<rect y="4.1106" width="4" height="58" transform="rotate(-90 0 4.1106)" fill="#323031"/>
<path d="M19.092 2.83958C18.5393 2.83958 17.9866 2.83958 17.3648 2.83958C17.3648 3.26645 17.3648 3.66354 17.3648 4.10034C16.6854 4.10034 16.0636 4.10034 15.3727 4.10034C15.3727 3.69332 15.3727 3.29623 15.3727 2.88921C14.7739 2.88921 14.2443 2.88921 13.7146 2.88921L13.5994 2.88921C13.5649 2.33328 13.6455 1.78728 13.5994 1.18172C14.1982 1.18172 14.7279 1.18172 15.3267 1.18172C15.3497 0.774698 15.3727 0.427243 15.3958 0.0301512C16.0291 0.0301512 16.6393 0.0301512 17.3302 0.0301512C17.3302 0.387534 17.3302 0.744916 17.3302 1.18172C17.9635 1.18172 18.5278 1.18172 19.1035 1.18172L19.0805 1.16186C19.0805 1.72772 19.0805 2.29357 19.0805 2.85943L19.092 2.83958Z" fill="white"/>
<path d="M41.9828 1.16211C42.5355 1.16211 43.0882 1.16211 43.687 1.16211C43.687 0.755085 43.687 0.397693 43.687 0.0105188C44.3548 0.0105188 44.9766 0.0105188 45.656 0.0105188C45.656 0.357983 45.656 0.715375 45.656 1.16211C46.2778 1.16211 46.842 1.16211 47.4063 1.16211L47.3947 1.15219C47.3947 1.71806 47.3947 2.28393 47.3947 2.8498L47.4063 2.83987C46.8535 2.83987 46.3008 2.83987 45.6905 2.83987C45.6905 3.27668 45.6905 3.68371 45.6905 4.1106C45.0227 4.1106 44.4124 4.1106 43.7445 4.1106C43.7445 3.71349 43.7445 3.30646 43.7445 2.83987C43.1112 2.83987 42.547 2.83987 41.9828 2.83987L41.9943 2.8498C41.9943 2.28393 41.9943 1.71806 41.9943 1.15219L41.9828 1.16211Z" fill="white"/>
<path d="M11.9865 1.19157C11.9865 1.72766 11.9865 2.26375 11.9865 2.80976L11.998 2.79983C11.4108 2.81969 10.8235 2.84947 10.1787 2.86933C10.1787 3.28628 10.1787 3.67346 10.1787 4.10034C9.60297 4.10034 9.07329 4.10034 8.47452 4.10034C8.47452 3.70324 8.47452 3.30614 8.47452 2.84947C7.77211 2.84947 7.15031 2.84947 6.50549 2.84947C6.50549 2.27367 6.50549 1.74751 6.50549 1.16179C7.1388 1.16179 7.7606 1.16179 8.45149 1.16179C8.45149 0.744831 8.45149 0.387439 8.45149 0.0101923C9.05026 0.0101923 9.57994 0.0101923 10.1787 0.0101923C10.1787 0.387439 10.1787 0.734903 10.1787 1.11215C10.8235 1.14193 11.4108 1.17172 11.9865 1.19157Z" fill="white"/>
<path d="M54.5449 2.83984C53.9116 2.83984 53.2898 2.83984 52.5989 2.83984C52.5989 3.27666 52.5989 3.6837 52.5989 4.1106C52.0117 4.1106 51.482 4.1106 50.8832 4.1106C50.8832 3.71348 50.8832 3.30644 50.8832 2.83984C50.2499 2.83984 49.6857 2.83984 49.1215 2.83984L49.133 2.85969C49.133 2.29381 49.133 1.72793 49.133 1.16204L49.1099 1.1819C49.6626 1.1819 50.2154 1.1819 50.8256 1.1819C50.8256 0.774857 50.8256 0.427385 50.8256 0.0302732C51.4244 0.0302732 51.9656 0.0302732 52.5644 0.0302733C52.5644 0.377746 52.5644 0.735146 52.5644 1.1819C53.2553 1.1819 53.9001 1.1819 54.5449 1.1819L54.5334 1.17197C54.5334 1.73785 54.5334 2.30374 54.5334 2.86962L54.5449 2.83984Z" fill="white"/>
<path d="M20.8072 1.16162C21.3599 1.16162 21.9126 1.16162 22.5229 1.16162C22.5229 0.734739 22.5229 0.377347 22.5229 0.000100527C23.1217 0.00010054 23.6398 0.000100551 24.2386 0.000100565C24.2386 0.36742 24.2386 0.724812 24.2386 1.16162C24.941 1.16162 25.5858 1.16162 26.2422 1.16162L26.2192 1.14177C26.2192 1.70764 26.2192 2.27351 26.2192 2.83938L26.2307 2.81952C25.5974 2.81952 24.9756 2.81952 24.2732 2.81952C24.2732 3.24641 24.2732 3.64351 24.2732 4.08032C23.6629 4.08032 23.1217 4.08032 22.5344 4.08032C22.5344 3.68322 22.5344 3.29605 22.5344 2.81952C21.9241 2.81952 21.3599 2.81952 20.7957 2.81952L20.8072 2.83938C20.8072 2.27351 20.8072 1.70764 20.8072 1.14177L20.8072 1.16162Z" fill="white"/>
<path d="M35.0746 1.16146C35.6273 1.16146 36.18 1.16146 36.7903 1.16146C36.7903 0.754432 36.7903 0.39704 36.7903 0.00986608C37.3891 0.0098661 37.9303 0.00986611 38.529 0.00986612C38.529 0.367258 38.529 0.72465 38.529 1.16146C39.1508 1.16146 39.7151 1.16146 40.2793 1.16146L40.2678 1.14161C40.2678 1.70748 40.2678 2.27335 40.2678 2.83922L40.2793 2.82929C39.7266 2.82929 39.1739 2.82929 38.5521 2.82929C38.5521 3.2661 38.5521 3.6632 38.5521 4.09009C37.9648 4.09009 37.4351 4.09009 36.8364 4.09009C36.8364 3.69299 36.8364 3.29588 36.8364 2.82929C36.2031 2.82929 35.6388 2.82929 35.0746 2.82929L35.0861 2.83922C35.0861 2.27335 35.0861 1.70748 35.0861 1.14161L35.0746 1.16146Z" fill="white"/>
<path d="M33.1387 2.83954C32.586 2.83954 32.0333 2.83954 31.4115 2.83954C31.4115 3.26643 31.4115 3.67346 31.4115 4.10034C30.8242 4.10034 30.2945 4.10034 29.6957 4.10034C29.6957 3.71317 29.6957 3.31607 29.6957 2.83954C29.0624 2.83954 28.4982 2.83954 27.934 2.83954L27.9455 2.84947C27.9455 2.2836 27.9455 1.71773 27.9455 1.15186L27.934 1.17172C28.4867 1.17172 29.0279 1.17172 29.6382 1.17172C29.6382 0.754758 29.6382 0.397367 29.6382 0.0101923C30.2369 0.0101923 30.7781 0.0101923 31.3769 0.0101923C31.3769 0.377512 31.3769 0.734903 31.3769 1.17172C31.9987 1.17172 32.5629 1.17172 33.1272 1.17172L33.1041 1.15186C33.1041 1.71773 33.1041 2.2836 33.1041 2.84947L33.1387 2.83954Z" fill="white"/>
<path d="M-0.000774824 1.14226C0.425273 1.14226 0.805264 1.14226 1.25434 1.14226C1.27737 0.765013 1.3004 0.407621 1.32343 0.0204472C1.86462 0.0204472 2.38279 0.0204472 2.98156 0.0204472C3.00459 0.377839 3.02762 0.745158 3.06216 1.15219C3.62639 1.15219 4.13304 1.15219 4.69727 1.15219C4.69727 1.71806 4.69727 2.25414 4.69727 2.82994C4.16758 2.82994 3.6379 2.82994 3.03914 2.82994C3.03914 3.27668 3.03914 3.67378 3.03914 4.1106C2.44037 4.1106 1.91068 4.1106 1.31192 4.1106C1.31192 3.69364 1.31192 3.28661 1.31192 2.8498C0.839808 2.8498 0.436788 2.8498 0.0107406 2.8498C-0.00077415 2.25414 -0.000774839 1.70813 -0.000774824 1.14226Z" fill="white"/>
<path d="M56.2613 1.16242C56.8255 1.16242 57.4012 1.16242 58 1.16242C58 1.71836 58 2.25445 58 2.83024C57.4012 2.83024 56.837 2.83024 56.2613 2.83024L56.2843 2.8501C56.2843 2.28423 56.2843 1.71836 56.2843 1.15249L56.2613 1.16242Z" fill="white"/>
<path d="M35.0744 2.83954C35.0744 3.24657 35.0744 3.6536 35.0744 4.10034C34.4296 4.10034 33.8193 4.10034 33.1284 4.10034C33.1284 3.68338 33.1284 3.2565 33.1284 2.83954L33.1169 2.8594C33.7732 2.8594 34.4296 2.8594 35.0859 2.8594L35.0744 2.83954Z" fill="white"/>
<path d="M33.1399 1.16211C33.1399 0.784863 33.1399 0.417543 33.1399 0.000586347C33.7733 0.000586361 34.395 0.000586375 35.0744 0.00058639C35.0744 0.387761 35.0744 0.774935 35.0744 1.16211L35.0859 1.14225C34.4296 1.14225 33.7732 1.14225 33.1169 1.14225L33.1399 1.16211Z" fill="white"/>
<path d="M56.2619 2.82929C56.2619 3.23632 56.2619 3.64335 56.2619 4.09009C55.7207 4.09009 55.1795 4.09009 54.5462 4.09009C54.5462 3.67313 54.5462 3.25617 54.5462 2.83922L54.5347 2.84914C55.1104 2.84914 55.6977 2.84914 56.2734 2.84914L56.2619 2.82929Z" fill="white"/>
<path d="M49.1213 2.83954C49.1213 3.24657 49.1213 3.6536 49.1213 4.10034C48.5686 4.10034 48.0274 4.10034 47.4056 4.10034C47.4056 3.68338 47.4056 3.26643 47.4056 2.83954L47.3941 2.84947C47.9698 2.84947 48.5571 2.84947 49.1328 2.84947L49.1213 2.83954Z" fill="white"/>
<path d="M41.9826 2.83954C41.9826 3.24657 41.9826 3.6536 41.9826 4.10034C41.4184 4.10034 40.8772 4.10034 40.2669 4.10034C40.2669 3.68338 40.2669 3.26643 40.2669 2.83954L40.2554 2.84947C40.8311 2.84947 41.4184 2.84947 41.9941 2.84947L41.9826 2.83954Z" fill="white"/>
<path d="M13.5884 2.80976C13.5424 3.20686 13.6343 3.68338 13.5882 4.10034C13.047 4.10034 12.5289 4.10034 11.8956 4.10034C11.9301 3.6536 11.9646 3.22672 11.9992 2.79983L11.9877 2.80976C12.5634 2.82962 13.0242 2.78991 13.5884 2.80976Z" fill="white"/>
<path d="M20.8068 2.83954C20.8068 3.24657 20.8068 3.6536 20.8068 4.10034C20.2196 4.10034 19.6899 4.10034 19.0911 4.10034C19.0911 3.68338 19.0911 3.26643 19.0911 2.83954L19.0796 2.84947C19.6554 2.84947 20.2426 2.84947 20.8184 2.84947L20.8068 2.83954Z" fill="white"/>
<path d="M27.9338 2.83954C27.9338 3.24657 27.9338 3.6536 27.9338 4.10034C27.3581 4.10034 26.8169 4.10034 26.2181 4.10034C26.2181 3.68338 26.2181 3.2565 26.2181 2.83954L26.2066 2.8594C26.7823 2.8594 27.3696 2.8594 27.9453 2.8594L27.9338 2.83954Z" fill="white"/>
<path d="M4.77937 4.09009C4.77937 3.67313 4.77937 3.28596 4.77937 2.869C5.34359 2.869 5.86176 2.869 6.4375 2.869C6.4375 3.27603 6.4375 3.6632 6.4375 4.09009C5.8963 4.09009 5.37814 4.09009 4.77937 4.09009Z" fill="white"/>
<path d="M54.5462 1.16211C54.5462 0.784863 54.5462 0.407616 54.5462 0.000586352C55.1335 0.000586365 55.6632 0.000586376 56.2504 0.000586389C56.2504 0.387761 56.2504 0.774935 56.2504 1.16211L56.2734 1.14225C55.6977 1.14225 55.1104 1.14225 54.5347 1.14225L54.5462 1.16211Z" fill="white"/>
<path d="M47.4173 1.16211C47.4173 0.784863 47.4173 0.407616 47.4173 0.000586352C47.9931 0.000586364 48.5227 0.000586376 49.1215 0.000586389C49.1215 0.387761 49.1215 0.774935 49.1215 1.16211L49.1445 1.14225C48.5688 1.14225 47.9815 1.14225 47.4058 1.14225L47.4173 1.16211Z" fill="white"/>
<path d="M40.2784 1.16211C40.2784 0.784863 40.2784 0.417543 40.2784 0.000586352C40.8427 0.000586364 41.3839 0.000586376 41.9826 0.00058639C41.9826 0.387761 41.9826 0.774935 41.9826 1.16211L41.9941 1.14225C41.4184 1.14225 40.8311 1.14225 40.2554 1.14225L40.2784 1.16211Z" fill="white"/>
<path d="M26.2296 1.16211C26.2296 0.784897 26.2296 0.417612 26.2296 0.0106201C26.7823 0.0106201 27.3235 0.0106201 27.9338 0.0106201C27.9338 0.397759 27.9338 0.784897 27.9338 1.16211L27.9453 1.14226C27.3696 1.14226 26.7823 1.14226 26.2066 1.14226L26.2296 1.16211Z" fill="white"/>
<path d="M19.0909 1.16211C19.0909 0.784863 19.0909 0.407616 19.0909 0.000586352C19.6321 0.000586364 20.1618 0.000586376 20.7951 0.00058639C20.7951 0.387761 20.7951 0.774935 20.7951 1.16211L20.8066 1.15218C20.2309 1.15218 19.6436 1.15218 19.0679 1.15218L19.0909 1.16211Z" fill="white"/>
<path d="M11.9988 1.20206C11.9643 0.814886 11.9182 0.427711 11.8837 0.0107545C12.494 0.0107545 13.0122 0.0107545 13.5879 0.0107546C13.5879 0.368146 13.5879 0.824892 13.5879 1.20214C13.0352 1.23192 12.517 1.16235 11.9988 1.20206Z" fill="white"/>
<path d="M4.79068 0.000999804C5.36642 0.000999816 5.88459 0.000999828 6.42578 0.00099984C6.42578 0.378215 6.42578 0.735577 6.42578 1.11279C5.88459 1.11279 5.3549 1.11279 4.79068 1.11279C4.79068 0.745504 4.79068 0.388142 4.79068 0.000999804Z" fill="white"/>
</svg>
