<svg width="85" height="76" viewBox="0 0 85 76" fill="none" xmlns="http://www.w3.org/2000/svg">
<path d="M0 0H84V76H0V0Z" fill="#EEEEEE"/>
<g opacity="0.5">
<path d="M22.385 73.4739C22.385 72.2493 22.385 71.0056 22.385 69.647C23.6118 69.647 24.7319 69.647 25.9053 69.647C25.9053 68.365 25.9053 67.1978 25.9053 65.9158C24.7674 65.9158 23.6473 65.9158 22.4383 65.9158C22.4383 64.5955 22.4383 63.4092 22.4383 62.1463C21.0871 62.1463 19.8603 62.1463 18.4735 62.1463C18.4735 63.3518 18.4735 64.5572 18.4735 65.8393C17.1756 65.8393 16.0377 65.8393 14.8287 65.8393C14.8287 64.5572 14.8287 63.2944 14.8287 61.8975C15.9666 61.8975 17.0867 61.8975 18.2602 61.8975C18.2602 60.4242 18.2602 59.123 18.2602 57.6688C17.1045 57.6688 16.0022 57.6688 14.8287 57.6688C14.8287 56.2911 14.8287 55.0282 14.8287 53.708C16.02 53.708 17.1578 53.708 18.4202 53.708C18.4202 54.9517 18.4202 56.138 18.4202 57.4009C19.7892 57.4009 21.016 57.4009 22.3672 57.4009C22.3672 56.1954 22.3672 55.0091 22.3672 53.6697C23.594 53.6697 24.7141 53.6697 25.9587 53.6697C25.9587 52.5025 25.9587 51.4692 25.9587 50.3785C29.639 50.3785 33.1771 50.3785 36.8219 50.3785C36.8219 51.4118 36.8219 52.4068 36.8219 53.5166C38.1731 53.5166 39.4177 53.5166 40.8223 53.5166C40.8223 52.5025 40.8223 51.4692 40.8223 50.3785C55.3481 50.3785 69.7316 50.3785 84.2041 50.3785C84.2041 58.8934 84.2041 67.3892 84.2041 75.9614C67.207 75.9614 50.2454 75.9614 33.2127 75.9614C33.1593 75.196 33.1238 74.4498 33.0704 73.627C31.9681 73.627 30.9191 73.627 29.799 73.627C29.7635 74.3924 29.7279 75.1386 29.6746 75.9614C28.4478 75.9614 27.2743 75.9614 26.0298 75.9614C25.9942 75.1769 25.9587 74.4307 25.9231 73.5887C24.7497 73.5887 23.6296 73.5887 22.5272 73.5887C22.4561 73.5696 22.4206 73.5313 22.385 73.4739ZM40.9112 69.7044C40.9112 70.929 40.9112 72.1536 40.9112 73.4357C42.138 73.4357 43.2225 73.4357 44.3426 73.4357C44.3426 72.1919 44.3426 71.0056 44.3426 69.7044C43.1514 69.7044 42.0313 69.7044 40.9112 69.7044C40.9112 68.4224 40.9112 67.1595 40.929 65.8775C42.0668 65.8201 43.2047 65.7627 44.3604 65.7053C44.3604 64.4616 44.3604 63.3326 44.3604 62.1654C43.2047 62.1654 42.1024 62.1654 40.9112 62.1654C40.9112 63.4666 40.9112 64.672 40.9112 65.8775C39.5955 65.8775 38.2798 65.8775 36.8219 65.8775C36.8219 67.2552 36.8219 68.4798 36.8219 69.7044C35.684 69.7044 34.5461 69.7044 33.3727 69.7044C33.3727 71.063 33.3727 72.2302 33.3727 73.4357C34.5106 73.4357 35.5596 73.4357 36.8397 73.4357C36.8397 72.1728 36.8397 70.9482 36.8397 69.7236C38.1909 69.7236 39.5422 69.7236 40.9112 69.7044ZM59.1173 65.7244C59.1173 64.4807 59.1173 63.3326 59.1173 62.1463C57.8016 62.1463 56.5749 62.1463 55.277 62.1463C55.277 63.3518 55.277 64.4998 55.277 65.7244C56.6104 65.7244 57.855 65.7244 59.1173 65.7244ZM22.5806 57.7262C22.5806 59.1039 22.5806 60.4433 22.5806 61.8019C23.7362 61.8019 24.803 61.8019 25.8698 61.8019C25.8698 60.3859 25.8698 59.0848 25.8698 57.7262C24.7497 57.7262 23.7007 57.7262 22.5806 57.7262ZM33.0349 61.821C33.0349 60.405 33.0349 59.1039 33.0349 57.7453C31.9148 57.7453 30.8658 57.7453 29.7812 57.7453C29.7812 59.123 29.7812 60.4433 29.7812 61.821C30.8836 61.821 31.897 61.821 33.0349 61.821ZM51.5077 69.8384C50.3165 69.8384 49.2142 69.8384 48.1296 69.8384C48.1296 71.0821 48.1296 72.2493 48.1296 73.4165C49.2853 73.4165 50.3876 73.4165 51.5077 73.4165C51.5077 72.1919 51.5077 71.0438 51.5077 69.8384ZM48.1296 62.1463C48.1296 63.4092 48.1296 64.5381 48.1296 65.7053C49.2853 65.7053 50.3876 65.7053 51.4899 65.7053C51.4899 64.4616 51.4899 63.3326 51.4899 62.1463C50.3343 62.1463 49.2675 62.1463 48.1296 62.1463ZM77.8213 69.781C77.8213 71.0439 77.8213 72.2302 77.8213 73.4165C78.9769 73.4165 80.0437 73.4165 81.146 73.4165C81.146 72.1728 81.146 70.9864 81.146 69.781C80.0259 69.781 78.9769 69.781 77.8213 69.781ZM36.6619 62.1654C35.5062 62.1654 34.4395 62.1654 33.3371 62.1654C33.3371 63.39 33.3371 64.519 33.3371 65.7244C34.4572 65.7244 35.5418 65.7244 36.6619 65.7244C36.6619 64.4807 36.6619 63.3326 36.6619 62.1654ZM48.1118 57.4009C49.3031 57.4009 50.3698 57.4009 51.4722 57.4009C51.4722 56.1954 51.4722 55.0665 51.4722 53.9184C50.3165 53.9184 49.2142 53.9184 48.1118 53.9184C48.1118 55.1239 48.1118 56.2337 48.1118 57.4009ZM41.0001 57.4009C42.1913 57.4009 43.2581 57.4009 44.3248 57.4009C44.3248 56.1763 44.3248 55.0474 44.3248 53.9376C43.1692 53.9376 42.0846 53.9376 41.0001 53.9376C41.0001 55.1239 41.0001 56.2337 41.0001 57.4009ZM36.6619 53.9184C35.4884 53.9184 34.4217 53.9184 33.3549 53.9184C33.3549 55.143 33.3549 56.2528 33.3549 57.4201C34.4928 57.4201 35.5418 57.4201 36.6619 57.4201C36.6619 56.2337 36.6619 55.1239 36.6619 53.9184ZM29.4612 65.7244C29.4612 64.4998 29.4612 63.3518 29.4612 62.1463C28.3411 62.1463 27.3099 62.1463 26.2076 62.1463C26.2076 63.3709 26.2076 64.519 26.2076 65.7244C27.3277 65.7244 28.3589 65.7244 29.4612 65.7244ZM29.7812 69.5896C30.9191 69.5896 31.9503 69.5896 33.0171 69.5896C33.0171 68.3459 33.0171 67.1787 33.0171 65.9732C31.897 65.9732 30.8658 65.9732 29.7812 65.9732C29.7812 67.1978 29.7812 68.3459 29.7812 69.5896ZM29.479 69.8384C28.3056 69.8384 27.2743 69.8384 26.2076 69.8384C26.2076 71.0821 26.2076 72.2302 26.2076 73.4165C27.3277 73.4165 28.3767 73.4165 29.479 73.4165C29.479 72.2111 29.479 71.0438 29.479 69.8384ZM66.2824 69.8192C65.1623 69.8192 64.1133 69.8192 63.0466 69.8192C63.0466 71.063 63.0466 72.2493 63.0466 73.4165C64.1845 73.4165 65.2157 73.4165 66.2824 73.4165C66.2824 72.1728 66.2824 71.0247 66.2824 69.8192ZM66.2824 57.4392C66.2824 56.1763 66.2824 55.0665 66.2824 53.9376C65.1445 53.9376 64.0956 53.9376 63.0466 53.9376C63.0466 55.143 63.0466 56.272 63.0466 57.4392C64.1489 57.4392 65.1623 57.4392 66.2824 57.4392ZM29.4612 53.8993C28.3056 53.8993 27.2921 53.8993 26.2254 53.8993C26.2254 55.1048 26.2254 56.2528 26.2254 57.3818C27.3632 57.3818 28.4122 57.3818 29.4612 57.3818C29.4612 56.1763 29.4612 55.0665 29.4612 53.8993Z" fill="black"/>
<path d="M4.07227 57.6121C2.70325 57.6121 1.38757 57.6121 0.000775363 57.6121C0.00077547 56.2918 0.00077557 55.048 0.000775678 53.7086C1.36979 53.7086 2.68547 53.7086 4.07227 53.7086C4.07227 55.0289 4.07227 56.2918 4.07227 57.6121Z" fill="black"/>
<path d="M4.05371 73.5317C2.70247 73.5317 1.38679 73.5317 -4.22707e-06 73.5317C-4.12508e-06 72.2689 -4.02619e-06 71.0443 -3.92111e-06 69.7431C1.33345 69.7431 2.64914 69.7431 4.05371 69.7431C4.05371 70.9486 4.05371 72.1732 4.05371 73.5317Z" fill="black"/>
<path d="M7.64549 65.8396C7.64549 64.5193 7.64549 63.2947 7.64549 61.9744C8.83671 61.9744 9.95681 61.9744 11.1836 61.9744C11.1836 63.2564 11.1836 64.5002 11.1836 65.8396C10.0279 65.8396 8.90783 65.8396 7.64549 65.8396Z" fill="black"/>
<path d="M18.2779 73.5898C17.14 73.5898 16.0021 73.5898 14.7931 73.5898C14.7931 72.2504 14.7931 71.0258 14.7931 69.7247C15.9666 69.7247 17.1222 69.7247 18.4023 69.7247C18.4023 70.9875 18.4023 72.2122 18.4023 73.4368C18.3668 73.4942 18.3134 73.5516 18.2779 73.5898Z" fill="black"/>
<path d="M7.66306 73.5129C7.66306 72.2309 7.66306 71.0063 7.66307 69.7243C8.85429 69.7243 9.99217 69.7243 11.2012 69.7243C11.2012 70.9872 11.2012 72.2118 11.2012 73.5129C10.0455 73.5129 8.90763 73.5129 7.66306 73.5129Z" fill="black"/>
<path d="M18.4027 73.4556C19.7362 73.4747 21.0518 73.4747 22.3853 73.4939C22.4209 73.5321 22.4742 73.5704 22.5098 73.6278C22.5098 74.3932 22.5098 75.1394 22.5098 76.0005C21.1052 76.0005 19.7717 76.0005 18.296 76.0005C18.296 75.1777 18.296 74.3932 18.296 73.6087C18.3138 73.5513 18.3672 73.4939 18.4027 73.4556Z" fill="black"/>
<path d="M22.385 47.8514C22.385 46.6268 22.385 45.383 22.385 44.0245C23.6118 44.0245 24.7319 44.0245 25.9053 44.0245C25.9053 42.7425 25.9053 41.5752 25.9053 40.2932C24.7674 40.2932 23.6473 40.2932 22.4383 40.2932C22.4383 38.9729 22.4383 37.7866 22.4383 36.5237C21.0871 36.5237 19.8603 36.5237 18.4735 36.5237C18.4735 37.7292 18.4735 38.9347 18.4735 40.2167C17.1756 40.2167 16.0377 40.2167 14.8287 40.2167C14.8287 38.9347 14.8287 37.6718 14.8287 36.275C15.9666 36.275 17.0867 36.275 18.2602 36.275C18.2602 34.8016 18.2602 33.5005 18.2602 32.0462C17.1045 32.0462 16.0022 32.0462 14.8287 32.0462C14.8287 30.6686 14.8287 29.4057 14.8287 28.0854C16.02 28.0854 17.1578 28.0854 18.4202 28.0854C18.4202 29.3291 18.4202 30.5155 18.4202 31.7784C19.7892 31.7784 21.016 31.7784 22.3672 31.7784C22.3672 30.5729 22.3672 29.3865 22.3672 28.0471C23.594 28.0471 24.7141 28.0471 25.9587 28.0471C25.9587 26.8799 25.9587 25.8467 25.9587 24.756C29.639 24.756 33.1771 24.756 36.8219 24.756C36.8219 25.7893 36.8219 26.7843 36.8219 27.8941C38.1731 27.8941 39.4177 27.8941 40.8223 27.8941C40.8223 26.8799 40.8223 25.8467 40.8223 24.756C55.3481 24.756 69.7316 24.756 84.2041 24.756C84.2041 33.2709 84.2041 41.7666 84.2041 50.3389C67.207 50.3389 50.2454 50.3389 33.2127 50.3389C33.1593 49.5735 33.1238 48.8272 33.0704 48.0044C31.9681 48.0044 30.9191 48.0044 29.799 48.0044C29.7635 48.7698 29.7279 49.5161 29.6746 50.3389C28.4478 50.3389 27.2743 50.3389 26.0298 50.3389C25.9942 49.5543 25.9587 48.8081 25.9231 47.9662C24.7497 47.9662 23.6296 47.9662 22.5272 47.9662C22.4561 47.947 22.4206 47.9088 22.385 47.8514ZM40.9112 44.0819C40.9112 45.3065 40.9112 46.5311 40.9112 47.8131C42.138 47.8131 43.2225 47.8131 44.3426 47.8131C44.3426 46.5694 44.3426 45.383 44.3426 44.0819C43.1514 44.0819 42.0313 44.0819 40.9112 44.0819C40.9112 42.7999 40.9112 41.537 40.929 40.255C42.0668 40.1976 43.2047 40.1402 44.3604 40.0828C44.3604 38.839 44.3604 37.7101 44.3604 36.5429C43.2047 36.5429 42.1024 36.5429 40.9112 36.5429C40.9112 37.844 40.9112 39.0495 40.9112 40.255C39.5955 40.255 38.2798 40.255 36.8219 40.255C36.8219 41.6326 36.8219 42.8573 36.8219 44.0819C35.684 44.0819 34.5461 44.0819 33.3727 44.0819C33.3727 45.4404 33.3727 46.6076 33.3727 47.8131C34.5106 47.8131 35.5596 47.8131 36.8397 47.8131C36.8397 46.5502 36.8397 45.3256 36.8397 44.101C38.1909 44.101 39.5422 44.101 40.9112 44.0819ZM59.1173 40.1019C59.1173 38.8581 59.1173 37.7101 59.1173 36.5237C57.8016 36.5237 56.5749 36.5237 55.277 36.5237C55.277 37.7292 55.277 38.8773 55.277 40.1019C56.6104 40.1019 57.855 40.1019 59.1173 40.1019ZM22.5806 32.1037C22.5806 33.4813 22.5806 34.8208 22.5806 36.1793C23.7362 36.1793 24.803 36.1793 25.8698 36.1793C25.8698 34.7633 25.8698 33.4622 25.8698 32.1037C24.7497 32.1037 23.7007 32.1037 22.5806 32.1037ZM33.0349 36.1984C33.0349 34.7825 33.0349 33.4813 33.0349 32.1228C31.9148 32.1228 30.8658 32.1228 29.7812 32.1228C29.7812 33.5005 29.7812 34.8208 29.7812 36.1984C30.8836 36.1984 31.897 36.1984 33.0349 36.1984ZM51.5077 44.2158C50.3165 44.2158 49.2142 44.2158 48.1296 44.2158C48.1296 45.4596 48.1296 46.6268 48.1296 47.794C49.2853 47.794 50.3876 47.794 51.5077 47.794C51.5077 46.5694 51.5077 45.4213 51.5077 44.2158ZM48.1296 36.5237C48.1296 37.7866 48.1296 38.9155 48.1296 40.0828C49.2853 40.0828 50.3876 40.0828 51.4899 40.0828C51.4899 38.839 51.4899 37.7101 51.4899 36.5237C50.3343 36.5237 49.2675 36.5237 48.1296 36.5237ZM77.8213 44.1584C77.8213 45.4213 77.8213 46.6076 77.8213 47.794C78.9769 47.794 80.0437 47.794 81.146 47.794C81.146 46.5502 81.146 45.3639 81.146 44.1584C80.0259 44.1584 78.9769 44.1584 77.8213 44.1584ZM36.6619 36.5429C35.5062 36.5429 34.4395 36.5429 33.3371 36.5429C33.3371 37.7675 33.3371 38.8964 33.3371 40.1019C34.4572 40.1019 35.5418 40.1019 36.6619 40.1019C36.6619 38.8581 36.6619 37.7101 36.6619 36.5429ZM48.1118 31.7784C49.3031 31.7784 50.3698 31.7784 51.4722 31.7784C51.4722 30.5729 51.4722 29.4439 51.4722 28.2959C50.3165 28.2959 49.2142 28.2959 48.1118 28.2959C48.1118 29.5014 48.1118 30.6112 48.1118 31.7784ZM41.0001 31.7784C42.1913 31.7784 43.2581 31.7784 44.3248 31.7784C44.3248 30.5538 44.3248 29.4248 44.3248 28.315C43.1692 28.315 42.0846 28.315 41.0001 28.315C41.0001 29.5014 41.0001 30.6112 41.0001 31.7784ZM36.6619 28.2959C35.4884 28.2959 34.4217 28.2959 33.3549 28.2959C33.3549 29.5205 33.3549 30.6303 33.3549 31.7975C34.4928 31.7975 35.5418 31.7975 36.6619 31.7975C36.6619 30.6112 36.6619 29.5014 36.6619 28.2959ZM29.4612 40.1019C29.4612 38.8773 29.4612 37.7292 29.4612 36.5237C28.3411 36.5237 27.3099 36.5237 26.2076 36.5237C26.2076 37.7483 26.2076 38.8964 26.2076 40.1019C27.3277 40.1019 28.3589 40.1019 29.4612 40.1019ZM29.7812 43.9671C30.9191 43.9671 31.9503 43.9671 33.0171 43.9671C33.0171 42.7233 33.0171 41.5561 33.0171 40.3506C31.897 40.3506 30.8658 40.3506 29.7812 40.3506C29.7812 41.5752 29.7812 42.7233 29.7812 43.9671ZM29.479 44.2158C28.3056 44.2158 27.2743 44.2158 26.2076 44.2158C26.2076 45.4596 26.2076 46.6076 26.2076 47.794C27.3277 47.794 28.3767 47.794 29.479 47.794C29.479 46.5885 29.479 45.4213 29.479 44.2158ZM66.2824 44.1967C65.1623 44.1967 64.1133 44.1967 63.0466 44.1967C63.0466 45.4404 63.0466 46.6268 63.0466 47.794C64.1845 47.794 65.2157 47.794 66.2824 47.794C66.2824 46.5502 66.2824 45.4022 66.2824 44.1967ZM66.2824 31.8166C66.2824 30.5538 66.2824 29.444 66.2824 28.315C65.1445 28.315 64.0956 28.315 63.0466 28.315C63.0466 29.5205 63.0466 30.6494 63.0466 31.8166C64.1489 31.8166 65.1623 31.8166 66.2824 31.8166ZM29.4612 28.2767C28.3056 28.2767 27.2921 28.2767 26.2254 28.2767C26.2254 29.4822 26.2254 30.6303 26.2254 31.7592C27.3632 31.7592 28.4122 31.7592 29.4612 31.7592C29.4612 30.5538 29.4612 29.444 29.4612 28.2767Z" fill="black"/>
<path d="M4.07227 31.9905C2.70325 31.9905 1.38757 31.9905 0.000775363 31.9905C0.00077547 30.6702 0.00077557 29.4265 0.000775678 28.087C1.36979 28.087 2.68547 28.087 4.07227 28.087C4.07227 29.4073 4.07227 30.6702 4.07227 31.9905Z" fill="black"/>
<path d="M4.05371 47.9102C2.70247 47.9102 1.38679 47.9102 -4.22707e-06 47.9102C-4.12508e-06 46.6473 -4.02619e-06 45.4227 -3.92111e-06 44.1215C1.33345 44.1215 2.64914 44.1215 4.05371 44.1215C4.05371 45.327 4.05371 46.5516 4.05371 47.9102Z" fill="black"/>
<path d="M7.64549 40.218C7.64549 38.8977 7.64549 37.6731 7.64549 36.3528C8.83671 36.3528 9.95681 36.3528 11.1836 36.3528C11.1836 37.6349 11.1836 38.8786 11.1836 40.218C10.0279 40.218 8.90783 40.218 7.64549 40.218Z" fill="black"/>
<path d="M18.2779 47.9683C17.14 47.9683 16.0021 47.9683 14.7931 47.9683C14.7931 46.6288 14.7931 45.4042 14.7931 44.1031C15.9666 44.1031 17.1222 44.1031 18.4023 44.1031C18.4023 45.366 18.4023 46.5906 18.4023 47.8152C18.3668 47.8726 18.3134 47.93 18.2779 47.9683Z" fill="black"/>
<path d="M7.66306 47.8914C7.66306 46.6093 7.66306 45.3847 7.66307 44.1027C8.85429 44.1027 9.99217 44.1027 11.2012 44.1027C11.2012 45.3656 11.2012 46.5902 11.2012 47.8914C10.0455 47.8914 8.90763 47.8914 7.66306 47.8914Z" fill="black"/>
<path d="M18.4027 47.834C19.7362 47.8531 21.0518 47.8531 22.3853 47.8723C22.4209 47.9105 22.4742 47.9488 22.5098 48.0062C22.5098 48.7716 22.5098 49.5179 22.5098 50.3789C21.1052 50.3789 19.7717 50.3789 18.296 50.3789C18.296 49.5561 18.296 48.7716 18.296 47.9871C18.3138 47.9297 18.3672 47.8723 18.4027 47.834Z" fill="black"/>
<path d="M22.385 23.0955C22.385 21.8709 22.385 20.6272 22.385 19.2686C23.6118 19.2686 24.7319 19.2686 25.9053 19.2686C25.9053 17.9866 25.9053 16.8194 25.9053 15.5374C24.7674 15.5374 23.6473 15.5374 22.4383 15.5374C22.4383 14.2171 22.4383 13.0307 22.4383 11.7679C21.0871 11.7679 19.8603 11.7679 18.4735 11.7679C18.4735 12.9733 18.4735 14.1788 18.4735 15.4608C17.1756 15.4608 16.0377 15.4608 14.8287 15.4608C14.8287 14.1788 14.8287 12.9159 14.8287 11.5191C15.9666 11.5191 17.0867 11.5191 18.2602 11.5191C18.2602 10.0458 18.2602 8.74461 18.2602 7.29038C17.1045 7.29038 16.0022 7.29038 14.8287 7.29038C14.8287 5.9127 14.8287 4.64982 14.8287 3.32954C16.02 3.32954 17.1578 3.32954 18.4202 3.32954C18.4202 4.57328 18.4202 5.75962 18.4202 7.0225C19.7892 7.0225 21.016 7.0225 22.3672 7.0225C22.3672 5.81703 22.3672 4.63068 22.3672 3.29127C23.594 3.29127 24.7141 3.29127 25.9587 3.29127C25.9587 2.12406 25.9587 1.09079 25.9587 0.000124817C29.639 0.000125165 33.1771 0.0001255 36.8219 0.000125845C36.8219 1.03339 36.8219 2.02839 36.8219 3.13819C38.1731 3.13819 39.4177 3.13819 40.8223 3.13819C40.8223 2.12406 40.8223 1.09079 40.8223 0.000126224C55.3481 0.000127598 69.7316 0.00012896 84.2041 0.000130329C84.2041 8.515 84.2041 17.0107 84.2041 25.583C67.207 25.583 50.2454 25.583 33.2127 25.583C33.1593 24.8176 33.1238 24.0714 33.0704 23.2486C31.9681 23.2486 30.9191 23.2486 29.799 23.2486C29.7635 24.014 29.7279 24.7602 29.6746 25.583C28.4478 25.583 27.2743 25.583 26.0298 25.583C25.9942 24.7985 25.9587 24.0522 25.9231 23.2103C24.7497 23.2103 23.6296 23.2103 22.5272 23.2103C22.4561 23.1912 22.4206 23.1529 22.385 23.0955ZM40.9112 19.326C40.9112 20.5506 40.9112 21.7752 40.9112 23.0572C42.138 23.0572 43.2225 23.0572 44.3426 23.0572C44.3426 21.8135 44.3426 20.6272 44.3426 19.326C43.1514 19.326 42.0313 19.326 40.9112 19.326C40.9112 18.044 40.9112 16.7811 40.929 15.4991C42.0668 15.4417 43.2047 15.3843 44.3604 15.3269C44.3604 14.0831 44.3604 12.9542 44.3604 11.787C43.2047 11.787 42.1024 11.787 40.9112 11.787C40.9112 13.0882 40.9112 14.2936 40.9112 15.4991C39.5955 15.4991 38.2798 15.4991 36.8219 15.4991C36.8219 16.8768 36.8219 18.1014 36.8219 19.326C35.684 19.326 34.5461 19.326 33.3727 19.326C33.3727 20.6846 33.3727 21.8518 33.3727 23.0572C34.5106 23.0572 35.5596 23.0572 36.8397 23.0572C36.8397 21.7944 36.8397 20.5698 36.8397 19.3451C38.1909 19.3451 39.5422 19.3451 40.9112 19.326ZM59.1173 15.346C59.1173 14.1023 59.1173 12.9542 59.1173 11.7679C57.8016 11.7679 56.5749 11.7679 55.277 11.7679C55.277 12.9733 55.277 14.1214 55.277 15.346C56.6104 15.346 57.855 15.346 59.1173 15.346ZM22.5806 7.34779C22.5806 8.72548 22.5806 10.0649 22.5806 11.4234C23.7362 11.4234 24.803 11.4234 25.8698 11.4234C25.8698 10.0075 25.8698 8.70634 25.8698 7.34779C24.7497 7.34779 23.7007 7.34779 22.5806 7.34779ZM33.0349 11.4426C33.0349 10.0266 33.0349 8.72547 33.0349 7.36692C31.9148 7.36692 30.8658 7.36692 29.7812 7.36692C29.7812 8.74461 29.7812 10.0649 29.7812 11.4426C30.8836 11.4426 31.897 11.4426 33.0349 11.4426ZM51.5077 19.46C50.3165 19.46 49.2142 19.46 48.1296 19.46C48.1296 20.7037 48.1296 21.8709 48.1296 23.0381C49.2853 23.0381 50.3876 23.0381 51.5077 23.0381C51.5077 21.8135 51.5077 20.6654 51.5077 19.46ZM48.1296 11.7679C48.1296 13.0307 48.1296 14.1597 48.1296 15.3269C49.2853 15.3269 50.3876 15.3269 51.4899 15.3269C51.4899 14.0831 51.4899 12.9542 51.4899 11.7679C50.3343 11.7679 49.2675 11.7679 48.1296 11.7679ZM77.8213 19.4026C77.8213 20.6654 77.8213 21.8518 77.8213 23.0381C78.9769 23.0381 80.0437 23.0381 81.146 23.0381C81.146 21.7944 81.146 20.608 81.146 19.4026C80.0259 19.4026 78.9769 19.4026 77.8213 19.4026ZM36.6619 11.787C35.5062 11.787 34.4395 11.787 33.3371 11.787C33.3371 13.0116 33.3371 14.1406 33.3371 15.346C34.4572 15.346 35.5418 15.346 36.6619 15.346C36.6619 14.1023 36.6619 12.9542 36.6619 11.787ZM48.1118 7.0225C49.3031 7.0225 50.3698 7.0225 51.4722 7.0225C51.4722 5.81703 51.4722 4.68809 51.4722 3.54002C50.3165 3.54002 49.2142 3.54002 48.1118 3.54002C48.1118 4.74549 48.1118 5.8553 48.1118 7.0225ZM41.0001 7.0225C42.1913 7.0225 43.2581 7.0225 44.3248 7.0225C44.3248 5.79789 44.3248 4.66895 44.3248 3.55915C43.1692 3.55915 42.0846 3.55915 41.0001 3.55915C41.0001 4.74549 41.0001 5.8553 41.0001 7.0225ZM36.6619 3.54002C35.4884 3.54001 34.4217 3.54001 33.3549 3.54001C33.3549 4.76463 33.3549 5.87443 33.3549 7.04164C34.4928 7.04164 35.5418 7.04164 36.6619 7.04164C36.6619 5.8553 36.6619 4.74549 36.6619 3.54002ZM29.4612 15.346C29.4612 14.1214 29.4612 12.9733 29.4612 11.7679C28.3411 11.7679 27.3099 11.7679 26.2076 11.7679C26.2076 12.9925 26.2076 14.1405 26.2076 15.346C27.3277 15.346 28.3589 15.346 29.4612 15.346ZM29.7812 19.2112C30.9191 19.2112 31.9503 19.2112 33.0171 19.2112C33.0171 17.9675 33.0171 16.8002 33.0171 15.5948C31.897 15.5948 30.8658 15.5948 29.7812 15.5948C29.7812 16.8194 29.7812 17.9675 29.7812 19.2112ZM29.479 19.46C28.3056 19.46 27.2743 19.46 26.2076 19.46C26.2076 20.7037 26.2076 21.8518 26.2076 23.0381C27.3277 23.0381 28.3767 23.0381 29.479 23.0381C29.479 21.8326 29.479 20.6654 29.479 19.46ZM66.2824 19.4408C65.1623 19.4408 64.1133 19.4408 63.0466 19.4408C63.0466 20.6846 63.0466 21.8709 63.0466 23.0381C64.1845 23.0381 65.2157 23.0381 66.2824 23.0381C66.2824 21.7944 66.2824 20.6463 66.2824 19.4408ZM66.2824 7.06078C66.2824 5.7979 66.2824 4.68809 66.2824 3.55915C65.1445 3.55915 64.0956 3.55915 63.0466 3.55915C63.0466 4.76463 63.0466 5.89357 63.0466 7.06078C64.1489 7.06078 65.1623 7.06078 66.2824 7.06078ZM29.4612 3.52088C28.3056 3.52088 27.2921 3.52088 26.2254 3.52088C26.2254 4.72636 26.2254 5.87443 26.2254 7.00337C27.3632 7.00337 28.4122 7.00337 29.4612 7.00337C29.4612 5.79789 29.4612 4.68809 29.4612 3.52088Z" fill="black"/>
<path d="M4.07227 7.23364C2.70325 7.23364 1.38757 7.23364 0.000775363 7.23364C0.00077547 5.91336 0.00077557 4.66962 0.000775678 3.3302C1.36979 3.3302 2.68547 3.3302 4.07227 3.3302C4.07227 4.65048 4.07227 5.91336 4.07227 7.23364Z" fill="black"/>
<path d="M4.05371 23.1533C2.70247 23.1533 1.38679 23.1533 -4.22707e-06 23.1533C-4.12508e-06 21.8904 -4.02619e-06 20.6658 -3.92111e-06 19.3647C1.33345 19.3647 2.64914 19.3647 4.05371 19.3647C4.05371 20.5702 4.05371 21.7948 4.05371 23.1533Z" fill="black"/>
<path d="M7.64549 15.4612C7.64549 14.1409 7.64549 12.9163 7.64549 11.596C8.83671 11.596 9.95681 11.596 11.1836 11.596C11.1836 12.878 11.1836 14.1218 11.1836 15.4612C10.0279 15.4612 8.90783 15.4612 7.64549 15.4612Z" fill="black"/>
<path d="M18.2779 23.2114C17.14 23.2114 16.0021 23.2114 14.7931 23.2114C14.7931 21.872 14.7931 20.6474 14.7931 19.3462C15.9666 19.3462 17.1222 19.3462 18.4023 19.3462C18.4023 20.6091 18.4023 21.8337 18.4023 23.0583C18.3668 23.1157 18.3134 23.1732 18.2779 23.2114Z" fill="black"/>
<path d="M7.66306 23.1348C7.66306 21.8528 7.66306 20.6281 7.66307 19.3461C8.85429 19.3461 9.99217 19.3461 11.2012 19.3461C11.2012 20.609 11.2012 21.8336 11.2012 23.1348C10.0455 23.1348 8.90763 23.1348 7.66306 23.1348Z" fill="black"/>
<path d="M18.4027 23.0772C19.7362 23.0963 21.0518 23.0963 22.3853 23.1154C22.4209 23.1537 22.4742 23.192 22.5098 23.2494C22.5098 24.0148 22.5098 24.761 22.5098 25.6221C21.1052 25.6221 19.7717 25.6221 18.296 25.6221C18.296 24.7993 18.296 24.0148 18.296 23.2303C18.3138 23.1728 18.3672 23.1154 18.4027 23.0772Z" fill="black"/>
</g>
</svg>
