<svg width="59" height="5" viewBox="0 0 59 5" fill="none" xmlns="http://www.w3.org/2000/svg">
<rect x="58.0576" y="0.109375" width="4" height="58" transform="rotate(90 58.0576 0.109375)" fill="#E9E9E9"/>
<path d="M38.908 1.27102C39.4607 1.27102 40.0134 1.27102 40.6352 1.27102C40.6352 0.844147 40.6352 0.447055 40.6352 0.010254C41.3146 0.010254 41.9364 0.0102541 42.6273 0.0102541C42.6273 0.417273 42.6273 0.814365 42.6273 1.22138C43.2261 1.22138 43.7557 1.22138 44.2854 1.22138L44.4006 1.22138C44.4351 1.77731 44.3545 2.32331 44.4006 2.92888C43.8018 2.92888 43.2721 2.92888 42.6733 2.92888C42.6503 3.3359 42.6273 3.68335 42.6042 4.08044C41.9709 4.08044 41.3607 4.08044 40.6698 4.08044C40.6698 3.72306 40.6698 3.36568 40.6698 2.92888C40.0365 2.92888 39.4722 2.92888 38.8965 2.92888L38.9195 2.94873C38.9195 2.38288 38.9195 1.81702 38.9195 1.25117L38.908 1.27102Z" fill="black"/>
<path d="M16.0172 2.94848C15.4645 2.94848 14.9118 2.94848 14.313 2.94848C14.313 3.35551 14.313 3.7129 14.313 4.10008C13.6452 4.10008 13.0234 4.10008 12.344 4.10008C12.344 3.75261 12.344 3.39522 12.344 2.94848C11.7222 2.94848 11.158 2.94848 10.5937 2.94848L10.6053 2.95841C10.6053 2.39254 10.6053 1.82667 10.6053 1.2608L10.5937 1.27073C11.1465 1.27073 11.6992 1.27073 12.3095 1.27073C12.3095 0.833914 12.3095 0.426885 12.3095 9.26352e-08C12.9773 1.28695e-07 13.5876 1.61645e-07 14.2555 1.97705e-07C14.2555 0.397102 14.2555 0.804132 14.2555 1.27073C14.8888 1.27073 15.453 1.27073 16.0172 1.27073L16.0057 1.2608C16.0057 1.82667 16.0057 2.39254 16.0057 2.95841L16.0172 2.94848Z" fill="black"/>
<path d="M46.0135 2.91903C46.0135 2.38294 46.0135 1.84685 46.0135 1.30084L46.002 1.31076C46.5892 1.29091 47.1765 1.26112 47.8213 1.24127C47.8213 0.824313 47.8213 0.437139 47.8213 0.010254C48.397 0.010254 48.9267 0.0102541 49.5255 0.0102541C49.5255 0.407356 49.5255 0.804458 49.5255 1.26113C50.2279 1.26113 50.8497 1.26113 51.4945 1.26113C51.4945 1.83692 51.4945 2.36308 51.4945 2.94881C50.8612 2.94881 50.2394 2.94881 49.5485 2.94881C49.5485 3.36576 49.5485 3.72316 49.5485 4.1004C48.9497 4.1004 48.4201 4.1004 47.8213 4.1004C47.8213 3.72316 47.8213 3.37569 47.8213 2.99845C47.1765 2.96866 46.5892 2.93888 46.0135 2.91903Z" fill="black"/>
<path d="M3.4541 1.27076C4.08742 1.27076 4.70921 1.27076 5.4001 1.27076C5.4001 0.833935 5.4001 0.426895 5.4001 1.05069e-07C5.98736 1.36777e-07 6.51704 1.65376e-07 7.11581 1.97705e-07C7.11581 0.397112 7.11581 0.804151 7.11581 1.27076C7.74912 1.27076 8.31334 1.27076 8.87757 1.27076L8.86605 1.2509C8.86605 1.81679 8.86605 2.38267 8.86605 2.94855L8.88908 2.9287C8.33637 2.9287 7.78366 2.9287 7.17338 2.9287C7.17338 3.33574 7.17338 3.68321 7.17338 4.08032C6.57461 4.08032 6.03342 4.08032 5.43465 4.08032C5.43465 3.73285 5.43465 3.37545 5.43465 2.9287C4.74376 2.9287 4.09893 2.9287 3.4541 2.9287L3.46562 2.93863C3.46562 2.37274 3.46562 1.80686 3.46562 1.24097L3.4541 1.27076Z" fill="black"/>
<path d="M37.1928 2.94897C36.6401 2.94897 36.0874 2.94897 35.4771 2.94897C35.4771 3.37586 35.4771 3.73325 35.4771 4.1105C34.8783 4.1105 34.3602 4.1105 33.7614 4.1105C33.7614 3.74318 33.7614 3.38578 33.7614 2.94897C33.059 2.94897 32.4142 2.94897 31.7578 2.94897L31.7808 2.96883C31.7808 2.40296 31.7808 1.83709 31.7808 1.27122L31.7693 1.29107C32.4026 1.29107 33.0244 1.29107 33.7268 1.29107C33.7268 0.864187 33.7268 0.467086 33.7268 0.0302735C34.3371 0.0302736 34.8783 0.0302736 35.4656 0.0302736C35.4656 0.427376 35.4656 0.81455 35.4656 1.29107C36.0759 1.29107 36.6401 1.29107 37.2043 1.29107L37.1928 1.27122C37.1928 1.83709 37.1928 2.40296 37.1928 2.96883L37.1928 2.94897Z" fill="black"/>
<path d="M22.9264 2.94913C22.3737 2.94913 21.8209 2.94913 21.2107 2.94913C21.2107 3.35616 21.2107 3.71356 21.2107 4.10073C20.6119 4.10073 20.0707 4.10073 19.4719 4.10073C19.4719 3.74334 19.4719 3.38595 19.4719 2.94913C18.8501 2.94913 18.2859 2.94913 17.7217 2.94913L17.7332 2.96899C17.7332 2.40312 17.7332 1.83725 17.7332 1.27138L17.7217 1.28131C18.2744 1.28131 18.8271 1.28131 19.4489 1.28131C19.4489 0.844494 19.4489 0.447392 19.4489 0.0205079C20.0362 0.0205079 20.5658 0.020508 21.1646 0.020508C21.1646 0.41761 21.1646 0.814712 21.1646 1.28131C21.7979 1.28131 22.3621 1.28131 22.9264 1.28131L22.9149 1.27138C22.9149 1.83725 22.9149 2.40312 22.9149 2.96899L22.9264 2.94913Z" fill="black"/>
<path d="M24.8604 1.27105C25.4131 1.27105 25.9658 1.27105 26.5876 1.27105C26.5876 0.844168 26.5876 0.437139 26.5876 0.010254C27.1748 0.010254 27.7045 0.0102541 28.3033 0.0102541C28.3033 0.397428 28.3033 0.79453 28.3033 1.27105C28.9366 1.27105 29.5008 1.27105 30.065 1.27105L30.0535 1.26113C30.0535 1.827 30.0535 2.39287 30.0535 2.95874L30.065 2.93888C29.5123 2.93888 28.9711 2.93888 28.3609 2.93888C28.3609 3.35584 28.3609 3.71323 28.3609 4.1004C27.7621 4.1004 27.2209 4.1004 26.6221 4.1004C26.6221 3.73308 26.6221 3.37569 26.6221 2.93888C26.0003 2.93888 25.4361 2.93888 24.8719 2.93888L24.8949 2.95874C24.8949 2.39287 24.8949 1.827 24.8949 1.26112L24.8604 1.27105Z" fill="black"/>
<path d="M57.9998 2.96834C57.5738 2.96834 57.1938 2.96834 56.7447 2.96834C56.7217 3.34558 56.6986 3.70297 56.6756 4.09015C56.1344 4.09015 55.6162 4.09015 55.0175 4.09015C54.9944 3.73276 54.9714 3.36544 54.9369 2.95841C54.3726 2.95841 53.866 2.95841 53.3018 2.95841C53.3018 2.39254 53.3018 1.85645 53.3018 1.28065C53.8314 1.28065 54.3611 1.28065 54.9599 1.28065C54.9599 0.833914 54.9599 0.436812 54.9599 8.95266e-08C55.5587 1.21856e-07 56.0883 1.50454e-07 56.6871 1.82783e-07C56.6871 0.416957 56.6871 0.823987 56.6871 1.2608C57.1592 1.2608 57.5622 1.2608 57.9883 1.2608C57.9998 1.85645 57.9998 2.40247 57.9998 2.96834Z" fill="black"/>
<path d="M1.73873 2.94818C1.17451 2.94818 0.598769 2.94818 -9.71141e-08 2.94818C-6.51236e-08 2.39224 -3.42756e-08 1.85615 -1.14251e-09 1.28035C0.59877 1.28035 1.16299 1.28035 1.73873 1.28035L1.71571 1.2605C1.71571 1.82637 1.7157 2.39224 1.7157 2.95811L1.73873 2.94818Z" fill="black"/>
<path d="M22.9266 1.27105C22.9266 0.864023 22.9266 0.456993 22.9266 0.0102539C23.5714 0.0102539 24.1817 0.010254 24.8726 0.010254C24.8726 0.427211 24.8726 0.854096 24.8726 1.27105L24.8841 1.2512C24.2277 1.2512 23.5714 1.2512 22.915 1.2512L22.9266 1.27105Z" fill="black"/>
<path d="M24.861 2.94849C24.861 3.32573 24.861 3.69305 24.861 4.11001C24.2277 4.11001 23.6059 4.11001 22.9266 4.11001C22.9266 3.72284 22.9266 3.33566 22.9266 2.94849L22.915 2.96834C23.5714 2.96834 24.2277 2.96834 24.8841 2.96834L24.861 2.94849Z" fill="black"/>
<path d="M1.73905 1.28131C1.73905 0.874277 1.73905 0.467247 1.73905 0.0205078C2.28025 0.0205078 2.82145 0.0205079 3.45476 0.0205079C3.45476 0.437465 3.45476 0.854422 3.45476 1.27138L3.46627 1.26145C2.89053 1.26145 2.30328 1.26145 1.72754 1.26145L1.73905 1.28131Z" fill="black"/>
<path d="M8.87773 1.27105C8.87773 0.864023 8.87773 0.456993 8.87773 0.0102539C9.43044 0.0102539 9.97163 0.010254 10.5934 0.010254C10.5934 0.427211 10.5934 0.844168 10.5934 1.27105L10.6049 1.26112C10.0292 1.26112 9.44195 1.26112 8.86621 1.26112L8.87773 1.27105Z" fill="black"/>
<path d="M16.0174 1.27105C16.0174 0.864023 16.0174 0.456993 16.0174 0.0102539C16.5816 0.0102539 17.1228 0.010254 17.7331 0.010254C17.7331 0.427211 17.7331 0.844168 17.7331 1.27105L17.7446 1.26112C17.1689 1.26112 16.5816 1.26112 16.0059 1.26112L16.0174 1.27105Z" fill="black"/>
<path d="M44.4125 1.30083C44.4586 0.903733 44.3667 0.427211 44.4127 0.0102539C44.9539 0.0102539 45.4721 0.010254 46.1054 0.010254C46.0709 0.456994 46.0363 0.883878 46.0018 1.31076L46.0133 1.30084C45.4376 1.28098 44.9768 1.32069 44.4125 1.30083Z" fill="black"/>
<path d="M37.1932 1.27105C37.1932 0.864023 37.1932 0.456993 37.1932 0.0102539C37.7804 0.0102539 38.3101 0.010254 38.9089 0.010254C38.9089 0.427211 38.9089 0.844168 38.9089 1.27105L38.9204 1.26112C38.3446 1.26112 37.7574 1.26112 37.1816 1.26112L37.1932 1.27105Z" fill="black"/>
<path d="M30.0652 1.27105C30.0652 0.864023 30.0652 0.456993 30.0652 0.0102539C30.641 0.0102539 31.1822 0.010254 31.7809 0.010254C31.7809 0.427211 31.7809 0.854096 31.7809 1.27105L31.7924 1.2512C31.2167 1.2512 30.6295 1.2512 30.0537 1.2512L30.0652 1.27105Z" fill="black"/>
<path d="M53.2216 0.0205079C53.2216 0.437465 53.2216 0.824639 53.2216 1.2416C52.6574 1.2416 52.1392 1.2416 51.5635 1.2416C51.5635 0.834566 51.5635 0.447392 51.5635 0.0205078C52.1047 0.0205078 52.6228 0.0205079 53.2216 0.0205079Z" fill="black"/>
<path d="M3.45476 2.94849C3.45476 3.32573 3.45476 3.70298 3.45476 4.11001C2.8675 4.11001 2.33782 4.11001 1.75057 4.11001C1.75057 3.72284 1.75057 3.33566 1.75057 2.94849L1.72754 2.96834C2.30328 2.96834 2.89053 2.96834 3.46627 2.96834L3.45476 2.94849Z" fill="black"/>
<path d="M10.5827 2.94849C10.5827 3.32573 10.5827 3.70298 10.5827 4.11001C10.0069 4.11001 9.47727 4.11001 8.8785 4.11001C8.8785 3.72284 8.8785 3.33566 8.8785 2.94849L8.85547 2.96834C9.43121 2.96834 10.0185 2.96834 10.5942 2.96834L10.5827 2.94849Z" fill="black"/>
<path d="M17.7216 2.94849C17.7216 3.32573 17.7216 3.69305 17.7216 4.11001C17.1573 4.11001 16.6161 4.11001 16.0174 4.11001C16.0174 3.72284 16.0174 3.33566 16.0174 2.94849L16.0059 2.96834C16.5816 2.96834 17.1689 2.96834 17.7446 2.96834L17.7216 2.94849Z" fill="black"/>
<path d="M31.7694 2.94849C31.7694 3.3257 31.7694 3.69298 31.7694 4.09998C31.2167 4.09998 30.6755 4.09998 30.0652 4.09998C30.0652 3.71284 30.0652 3.3257 30.0652 2.94849L30.0537 2.96834C30.6295 2.96834 31.2167 2.96834 31.7924 2.96834L31.7694 2.94849Z" fill="black"/>
<path d="M38.9091 2.94849C38.9091 3.32573 38.9091 3.70298 38.9091 4.11001C38.3679 4.11001 37.8382 4.11001 37.2049 4.11001C37.2049 3.72284 37.2049 3.33566 37.2049 2.94849L37.1934 2.95841C37.7691 2.95841 38.3564 2.95841 38.9321 2.95841L38.9091 2.94849Z" fill="black"/>
<path d="M46.0021 2.90854C46.0367 3.29571 46.0827 3.68288 46.1173 4.09984C45.507 4.09984 44.9888 4.09984 44.4131 4.09984C44.4131 3.74245 44.4131 3.2857 44.4131 2.90846C44.9658 2.87867 45.484 2.94825 46.0021 2.90854Z" fill="black"/>
<path d="M53.2103 4.1096C52.6346 4.1096 52.1164 4.1096 51.5752 4.1096C51.5752 3.73238 51.5752 3.37502 51.5752 2.9978C52.1164 2.9978 52.6461 2.9978 53.2103 2.9978C53.2103 3.36509 53.2103 3.72245 53.2103 4.1096Z" fill="black"/>
</svg>
