<svg width="51" height="20" viewBox="0 0 51 20" fill="none" xmlns="http://www.w3.org/2000/svg">
<rect width="50.287" height="20" fill="#AA58B1"/>
<rect width="1.21107" height="1.21107" transform="matrix(4.37114e-08 1 1 -4.37114e-08 8.92285 13.8452)" fill="white"/>
<rect width="1.21107" height="1.21107" transform="matrix(4.37114e-08 1 1 -4.37114e-08 7.71191 12.634)" fill="white"/>
<rect width="1.21107" height="1.21107" transform="matrix(4.37114e-08 1 1 -4.37114e-08 6.50098 11.4226)" fill="white"/>
<rect width="1.21107" height="1.21107" transform="matrix(4.37114e-08 1 1 -4.37114e-08 6.50098 10.2109)" fill="white"/>
<rect width="1.21107" height="1.21107" transform="matrix(4.37114e-08 1 1 -4.37114e-08 6.50098 9)" fill="white"/>
<rect width="1.21107" height="1.21107" transform="matrix(4.37114e-08 1 1 -4.37114e-08 6.50098 7.78882)" fill="white"/>
<rect width="1.21107" height="1.21107" transform="matrix(4.37114e-08 1 1 -4.37114e-08 7.71191 6.57764)" fill="white"/>
<rect width="1.21107" height="1.21107" transform="matrix(4.37114e-08 1 1 -4.37114e-08 8.92285 5.36621)" fill="white"/>
<rect width="1.21107" height="1.21107" transform="matrix(4.37114e-08 1 1 -4.37114e-08 10.1338 5.36621)" fill="white"/>
<rect width="1.21107" height="1.21107" transform="matrix(4.37114e-08 1 1 -4.37114e-08 11.3457 5.36621)" fill="white"/>
<rect width="1.21107" height="1.21107" transform="matrix(4.37114e-08 1 1 -4.37114e-08 12.5576 6.57764)" fill="white"/>
<rect width="1.21107" height="1.21107" transform="matrix(4.37114e-08 1 1 -4.37114e-08 13.7686 7.78882)" fill="white"/>
<rect width="1.21107" height="1.21107" transform="matrix(4.37114e-08 1 1 -4.37114e-08 13.7686 9)" fill="white"/>
<rect width="1.21107" height="1.21107" transform="matrix(4.37114e-08 1 1 -4.37114e-08 13.7686 10.2109)" fill="white"/>
<rect width="1.21107" height="1.21107" transform="matrix(4.37114e-08 1 1 -4.37114e-08 13.7686 11.4226)" fill="white"/>
<rect width="1.21107" height="1.21107" transform="matrix(4.37114e-08 1 1 -4.37114e-08 12.5576 12.634)" fill="white"/>
<rect width="1.21107" height="1.21107" transform="matrix(4.37114e-08 1 1 -4.37114e-08 11.3457 13.8452)" fill="white"/>
<rect width="1.21107" height="1.21107" transform="matrix(4.37114e-08 1 1 -4.37114e-08 10.1338 13.8452)" fill="white"/>
<rect width="1.21107" height="1.21107" transform="matrix(4.37114e-08 1 1 -4.37114e-08 10.1338 11.4226)" fill="white"/>
<rect width="1.21107" height="1.21107" transform="matrix(4.37114e-08 1 1 -4.37114e-08 10.1338 10.2109)" fill="white"/>
<rect width="1.21107" height="1.21107" transform="matrix(4.37114e-08 1 1 -4.37114e-08 10.1338 9)" fill="white"/>
<rect width="1.21107" height="1.21107" transform="matrix(4.37114e-08 1 1 -4.37114e-08 10.1338 7.78882)" fill="white"/>
<path d="M22.2538 14.12C23.1238 14.12 23.7638 13.77 24.2838 13.17L23.8138 12.66C23.3938 13.13 22.9338 13.39 22.3338 13.39C21.0738 13.39 20.2538 12.35 20.2538 10.7C20.2538 9.07 21.0738 8.05 22.3338 8.05C22.8838 8.05 23.3138 8.29 23.6538 8.65L24.1238 8.12C23.7438 7.7 23.1138 7.32 22.3338 7.32C20.6238 7.32 19.3938 8.61 19.3938 10.72C19.3938 12.86 20.6338 14.12 22.2538 14.12ZM27.7399 14.12C29.2199 14.12 30.2599 12.84 30.2599 10.69C30.2599 8.57 29.2199 7.32 27.7399 7.32C26.2599 7.32 25.2199 8.57 25.2199 10.69C25.2199 12.84 26.2599 14.12 27.7399 14.12ZM27.7399 13.39C26.7399 13.39 26.0799 12.37 26.0799 10.69C26.0799 9.04 26.7399 8.05 27.7399 8.05C28.7399 8.05 29.3999 9.04 29.3999 10.69C29.3999 12.37 28.7399 13.39 27.7399 13.39ZM31.686 14H35.786V13.29H34.156V8.14H35.786V7.44H31.686V8.14H33.316V13.29H31.686V14ZM37.5521 14H38.3521V10.57C38.3521 9.89 38.2721 9.19 38.2421 8.52H38.2621L38.8921 9.88L40.9921 14H41.9121V7.44H41.1121V10.84C41.1121 11.53 41.1921 12.27 41.2221 12.92H41.2021L40.5721 11.56L38.4721 7.44H37.5521V14Z" fill="white"/>
</svg>
