<svg width="17" height="17" viewBox="0 0 17 17" fill="none" xmlns="http://www.w3.org/2000/svg">
<rect x="0.387659" y="16.5091" width="14.0582" height="14.0582" transform="rotate(-90 0.387659 16.5091)" stroke="#EC5C3D" stroke-width="0.775317"/>
<rect x="1.79004" y="14.8335" width="14.8335" height="14.8335" transform="rotate(-90 1.79004 14.8335)" fill="#EC5C3D"/>
<rect x="11.4766" y="9.03687" width="1.33796" height="1.20734" transform="rotate(-180 11.4766 9.03687)" fill="white"/>
<rect x="11.4766" y="7.82886" width="1.33796" height="1.20735" transform="rotate(-180 11.4766 7.82886)" fill="white"/>
<rect x="12.8154" y="6.62231" width="1.33796" height="1.20734" transform="rotate(-180 12.8154 6.62231)" fill="white"/>
<rect x="11.4766" y="6.62231" width="1.33796" height="1.20734" transform="rotate(-180 11.4766 6.62231)" fill="white"/>
<rect x="10.1387" y="7.82886" width="1.33796" height="1.20735" transform="rotate(-180 10.1387 7.82886)" fill="white"/>
<rect x="12.8154" y="5.41431" width="1.33796" height="1.20734" transform="rotate(-180 12.8154 5.41431)" fill="white"/>
<rect x="14.1533" y="5.41431" width="1.33796" height="1.20734" transform="rotate(-180 14.1533 5.41431)" fill="white"/>
<rect x="14.1533" y="4.20776" width="1.33796" height="1.20734" transform="rotate(-180 14.1533 4.20776)" fill="white"/>
<rect x="12.8154" y="9.03687" width="1.33796" height="1.20734" transform="rotate(-180 12.8154 9.03687)" fill="white"/>
<rect x="12.8154" y="10.2437" width="1.33796" height="1.20735" transform="rotate(-180 12.8154 10.2437)" fill="white"/>
<rect x="14.1533" y="10.2437" width="1.33796" height="1.20734" transform="rotate(-180 14.1533 10.2437)" fill="white"/>
<rect x="14.1523" y="11.4517" width="1.33796" height="1.20734" transform="rotate(-180 14.1523 11.4517)" fill="white"/>
<rect x="7.67676" y="5.41479" width="1.33796" height="1.20734" fill="white"/>
<rect x="7.67676" y="6.6228" width="1.33796" height="1.20735" fill="white"/>
<rect x="6.33789" y="7.82959" width="1.33796" height="1.20734" fill="white"/>
<rect x="7.67676" y="7.82959" width="1.33796" height="1.20734" fill="white"/>
<rect x="9.01465" y="6.6228" width="1.33796" height="1.20735" fill="white"/>
<rect x="6.33789" y="9.0376" width="1.33796" height="1.20734" fill="white"/>
<rect x="5" y="9.0376" width="1.33796" height="1.20734" fill="white"/>
<rect x="5" y="10.2441" width="1.33796" height="1.20734" fill="white"/>
<rect x="6.33789" y="5.41479" width="1.33796" height="1.20734" fill="white"/>
<rect x="6.33789" y="4.20825" width="1.33796" height="1.20735" fill="white"/>
<rect x="5" y="4.20825" width="1.33796" height="1.20734" fill="white"/>
<rect x="5.00098" y="3" width="1.33796" height="1.20734" fill="white"/>
</svg>
