<svg width="50" height="20" viewBox="0 0 50 20" fill="none" xmlns="http://www.w3.org/2000/svg">
<rect width="50" height="20" fill="#E4622B"/>
<rect x="11.5" y="12.6392" width="1.24983" height="1.12781" transform="rotate(-180 11.5 12.6392)" fill="white"/>
<rect x="11.5" y="11.5105" width="1.24983" height="1.12782" transform="rotate(-180 11.5 11.5105)" fill="white"/>
<rect x="12.751" y="10.3833" width="1.24983" height="1.12781" transform="rotate(-180 12.751 10.3833)" fill="white"/>
<rect x="11.5" y="10.3833" width="1.24983" height="1.12781" transform="rotate(-180 11.5 10.3833)" fill="white"/>
<rect x="10.25" y="11.5105" width="1.24983" height="1.12782" transform="rotate(-180 10.25 11.5105)" fill="white"/>
<rect x="12.751" y="9.25488" width="1.24983" height="1.12782" transform="rotate(-180 12.751 9.25488)" fill="white"/>
<rect x="14" y="9.25488" width="1.24983" height="1.12781" transform="rotate(-180 14 9.25488)" fill="white"/>
<rect x="14" y="8.12793" width="1.24983" height="1.12781" transform="rotate(-180 14 8.12793)" fill="white"/>
<rect x="12.751" y="12.6392" width="1.24983" height="1.12781" transform="rotate(-180 12.751 12.6392)" fill="white"/>
<rect x="12.751" y="13.7664" width="1.24983" height="1.12782" transform="rotate(-180 12.751 13.7664)" fill="white"/>
<rect x="14" y="13.7664" width="1.24983" height="1.12782" transform="rotate(-180 14 13.7664)" fill="white"/>
<rect x="14" y="14.8953" width="1.24983" height="1.12782" transform="rotate(-180 14 14.8953)" fill="white"/>
<rect x="7.5" y="9.2561" width="1.24983" height="1.12781" fill="white"/>
<rect x="7.5" y="10.3848" width="1.24983" height="1.12782" fill="white"/>
<rect x="6.24902" y="11.512" width="1.24983" height="1.12781" fill="white"/>
<rect x="7.5" y="11.512" width="1.24983" height="1.12781" fill="white"/>
<rect x="8.75" y="10.3848" width="1.24983" height="1.12782" fill="white"/>
<rect x="6.24902" y="12.6404" width="1.24983" height="1.12782" fill="white"/>
<rect x="5" y="12.6404" width="1.24983" height="1.12781" fill="white"/>
<rect x="5" y="13.7673" width="1.24983" height="1.12781" fill="white"/>
<rect x="6.24902" y="9.2561" width="1.24983" height="1.12781" fill="white"/>
<rect x="6.24902" y="8.12891" width="1.24983" height="1.12782" fill="white"/>
<rect x="5" y="8.12891" width="1.24983" height="1.12782" fill="white"/>
<rect x="5" y="7" width="1.24983" height="1.12782" fill="white"/>
<path d="M17.4717 14H21.6317V13.29H18.3117V10.91H21.0317V10.2H18.3117V8.14H21.5317V7.44H17.4717V14ZM23.3278 14H24.1578V11.23H25.3278L26.9078 14H27.8578L26.1878 11.14C27.0778 10.91 27.6578 10.3 27.6578 9.28C27.6578 7.92 26.6978 7.44 25.3678 7.44H23.3278V14ZM24.1578 10.55V8.11H25.2478C26.2678 8.11 26.8278 8.42 26.8278 9.28C26.8278 10.13 26.2678 10.55 25.2478 10.55H24.1578ZM29.3239 14H30.1539V11.23H31.3239L32.9039 14H33.8539L32.1839 11.14C33.0739 10.91 33.6539 10.3 33.6539 9.28C33.6539 7.92 32.6939 7.44 31.3639 7.44H29.3239V14ZM30.1539 10.55V8.11H31.2439C32.2639 8.11 32.8239 8.42 32.8239 9.28C32.8239 10.13 32.2639 10.55 31.2439 10.55H30.1539ZM37.32 14.12C38.8 14.12 39.84 12.84 39.84 10.69C39.84 8.57 38.8 7.32 37.32 7.32C35.84 7.32 34.8 8.57 34.8 10.69C34.8 12.84 35.84 14.12 37.32 14.12ZM37.32 13.39C36.32 13.39 35.66 12.37 35.66 10.69C35.66 9.04 36.32 8.05 37.32 8.05C38.32 8.05 38.98 9.04 38.98 10.69C38.98 12.37 38.32 13.39 37.32 13.39ZM41.3161 14H42.1461V11.23H43.3161L44.8961 14H45.8461L44.1761 11.14C45.0661 10.91 45.6461 10.3 45.6461 9.28C45.6461 7.92 44.6861 7.44 43.3561 7.44H41.3161V14ZM42.1461 10.55V8.11H43.2361C44.2561 8.11 44.8161 8.42 44.8161 9.28C44.8161 10.13 44.2561 10.55 43.2361 10.55H42.1461Z" fill="white"/>
</svg>
