<svg width="18" height="17" viewBox="0 0 18 17" fill="none" xmlns="http://www.w3.org/2000/svg">
<path fill-rule="evenodd" clip-rule="evenodd" d="M0.755859 0H17.4876V16.7317H0.755859V0ZM7.10211 11.0101C7.53989 12.5399 8.94885 13.6597 10.6193 13.6597C12.6396 13.6597 14.2773 12.022 14.2773 10.0017C14.2773 8.44435 13.3041 7.11428 11.9326 6.58656C11.9342 6.63429 11.935 6.68222 11.935 6.73033C11.935 7.00494 11.9093 7.27355 11.8602 7.53389C12.7622 7.98834 13.381 8.92277 13.381 10.0017C13.381 11.5269 12.1446 12.7634 10.6193 12.7634C9.45391 12.7634 8.45708 12.0414 8.05166 11.0204C7.91097 11.0342 7.76831 11.0413 7.62398 11.0413C7.44734 11.0413 7.27318 11.0307 7.10211 11.0101ZM7.62364 9.49187C6.09842 9.49187 4.862 8.25544 4.862 6.73022C4.862 5.20501 6.09842 3.96858 7.62364 3.96858C9.14885 3.96858 10.3853 5.20501 10.3853 6.73022C10.3853 8.25544 9.14885 9.49187 7.62364 9.49187ZM3.96565 6.73022C3.96565 4.70998 5.60339 3.07224 7.62364 3.07224C9.64388 3.07224 11.2816 4.70998 11.2816 6.73022C11.2816 8.75047 9.64388 10.3882 7.62364 10.3882C5.60339 10.3882 3.96565 8.75047 3.96565 6.73022Z" fill="#1776E3"/>
</svg>
