<svg width="17" height="17" viewBox="0 0 17 17" fill="none" xmlns="http://www.w3.org/2000/svg">
<path fill-rule="evenodd" clip-rule="evenodd" d="M0 0H16.7317V16.7317H0V0ZM4.89243 7.27562V11.8387C4.89243 12.0785 5.08668 12.2728 5.32653 12.2728H6.62995V8.36582C6.62995 8.12597 6.82421 7.93171 7.06406 7.93171H9.6687C9.90855 7.93171 10.1028 8.12597 10.1028 8.36582V12.2728H11.404C11.6439 12.2728 11.8381 12.0785 11.8381 11.8387V7.27562L8.36528 4.57444L4.89243 7.27562ZM9.6754 13.1409H11.404C12.123 13.1409 12.7063 12.5576 12.7063 11.8386V7.06345C12.7063 6.92942 12.6445 6.80299 12.5387 6.72105L8.63171 3.6823C8.47489 3.56021 8.25567 3.56021 8.09885 3.6823L4.19188 6.72105H4.19187C4.08606 6.80298 4.0242 6.92942 4.0242 7.06345V11.8386C4.0242 12.5576 4.60753 13.1409 5.32652 13.1409H7.05736C7.05959 13.141 7.06182 13.141 7.06406 13.141C7.0663 13.141 7.06853 13.141 7.07076 13.1409H9.66201C9.66423 13.141 9.66647 13.141 9.6687 13.141C9.67094 13.141 9.67317 13.141 9.6754 13.1409ZM9.2346 12.2728V8.79993H7.49817V12.2728H9.2346Z" fill="#AA58B1"/>
</svg>
