<svg width="18" height="17" viewBox="0 0 18 17" fill="none" xmlns="http://www.w3.org/2000/svg">
<path fill-rule="evenodd" clip-rule="evenodd" d="M0.511719 0H17.2434V16.7317H0.511719V0ZM11.7298 14.065C11.7298 14.1839 11.6633 14.2916 11.5573 14.3452C11.4513 14.3982 11.3247 14.3876 11.2293 14.3176L8.87591 12.5788L6.52248 14.3176C6.46713 14.3582 6.40178 14.3788 6.33583 14.3788C6.28755 14.3788 6.23926 14.3676 6.19451 14.3452C6.08853 14.2916 6.022 14.1839 6.022 14.065V9.53402C5.1906 8.74855 4.71602 7.65692 4.71602 6.51404C4.71602 4.21941 6.58257 2.35301 8.8766 2.35301C11.1712 2.35301 13.0376 4.21956 13.0376 6.51404C13.0376 7.65692 12.5625 8.74854 11.7311 9.53402V12.3702L11.7298 14.065ZM6.6496 13.442L8.68919 11.9358C8.80047 11.854 8.95121 11.854 9.0625 11.9358L11.1021 13.442V10.0245C11.0918 10.0313 11.0813 10.0372 11.0707 10.0431L11.0707 10.0431L11.0572 10.0507L11.0497 10.0552C11.0304 10.0671 11.0108 10.0784 10.991 10.0898C10.9788 10.0968 10.9665 10.1039 10.9543 10.1111C10.8848 10.1511 10.8148 10.1894 10.7435 10.2253L10.7215 10.2364L10.7215 10.2364L10.7215 10.2364L10.7214 10.2364C10.6958 10.2493 10.6701 10.2623 10.644 10.2742C10.561 10.3136 10.4768 10.3496 10.3914 10.3831L10.3833 10.3864L10.366 10.3938C10.3541 10.3989 10.3422 10.404 10.3302 10.4084C10.2242 10.4485 10.117 10.4832 10.0081 10.5144C9.98555 10.521 9.963 10.5265 9.94015 10.532L9.9401 10.532L9.92271 10.5362C9.84087 10.558 9.75784 10.5768 9.67483 10.5933C9.64773 10.5989 9.62031 10.6036 9.59304 10.6082L9.56296 10.6133C9.48347 10.6263 9.40339 10.6375 9.32332 10.6463C9.28858 10.6504 9.25384 10.6546 9.21851 10.6575C9.10487 10.6669 8.99065 10.6734 8.87583 10.6734C8.76101 10.6734 8.64679 10.6675 8.53315 10.6575C8.51226 10.6558 8.49178 10.6534 8.47123 10.651H8.47122H8.47121H8.4712C8.45701 10.6494 8.44277 10.6478 8.42834 10.6463C8.34768 10.6375 8.26819 10.6269 8.1887 10.6133L8.17416 10.6108L8.17412 10.6108L8.17408 10.6108L8.17405 10.6108C8.14171 10.6052 8.10905 10.5995 8.07683 10.5933C7.99381 10.5768 7.91078 10.5574 7.82895 10.5362C7.81717 10.5331 7.80549 10.5303 7.79387 10.5274C7.77702 10.5234 7.7603 10.5193 7.74357 10.5144C7.63464 10.4832 7.52748 10.4485 7.42091 10.4084C7.40886 10.404 7.39701 10.3989 7.38512 10.3938L7.38509 10.3938L7.38508 10.3938C7.37666 10.3902 7.36822 10.3865 7.35967 10.3831C7.27429 10.3496 7.19009 10.3136 7.10766 10.2742C7.0741 10.2583 7.04112 10.2418 7.00815 10.2253C6.9369 10.1894 6.86683 10.1511 6.79736 10.1111C6.78465 10.1036 6.77194 10.0962 6.75924 10.0889L6.75918 10.0888C6.74011 10.0778 6.72104 10.0668 6.70197 10.0552C6.69393 10.0502 6.68576 10.0456 6.67752 10.0409L6.67751 10.0409L6.6775 10.0409L6.67748 10.0409C6.66823 10.0357 6.6589 10.0304 6.64957 10.0245L6.6496 13.442ZM12.4087 6.51407C12.4087 4.56628 10.8236 2.98115 8.8758 2.98115C6.928 2.98115 5.34348 4.56568 5.34348 6.51407C5.34348 7.52505 5.78037 8.48945 6.54347 9.16188H6.54405C6.94857 9.5187 7.42373 9.77483 7.93246 9.91732C8.23745 10.0027 8.55483 10.0469 8.87631 10.0469C9.1978 10.0469 9.51458 10.0027 9.82017 9.91732C10.3289 9.77483 10.8041 9.5187 11.2092 9.16188H11.2097C11.9717 8.48888 12.4086 7.52445 12.4086 6.51407H12.4087ZM9.13438 4.57503L9.20113 4.67366L9.20112 4.67367L9.13186 4.57678L9.13333 4.57574L9.13438 4.57503ZM8.78053 5.81042C9.20489 5.47045 9.50636 5.30581 9.67623 5.23227C9.75385 5.19897 9.80031 5.12888 9.8131 5.05848C9.82597 4.98756 9.80652 4.90109 9.73319 4.84531L9.39523 4.5799L9.39087 4.57678C9.31326 4.5213 9.21125 4.52095 9.13333 4.57574C8.81237 4.79309 8.51145 5.05929 8.23481 5.3395L8.22689 5.34151C8.1083 5.2986 7.97093 5.32763 7.8779 5.42676L7.8748 5.43033C7.78921 5.52907 7.78117 5.66508 7.82812 5.77386C7.43604 6.23924 7.10273 6.72341 6.8419 7.13975C6.76698 7.25615 6.81988 7.37717 6.89813 7.43459C6.97578 7.49156 7.10701 7.50753 7.19567 7.40107C7.59375 6.93023 7.95027 6.55997 8.2612 6.26471L10.0108 8.1303C10.1597 8.2927 10.4192 8.32604 10.5975 8.17742L10.5985 8.17658C10.7928 8.01102 10.8012 7.72008 10.6194 7.54561L8.78053 5.82176V5.81042Z" fill="#24AEA6"/>
</svg>
