<svg width="50" height="20" viewBox="0 0 50 20" fill="none" xmlns="http://www.w3.org/2000/svg">
<rect width="50" height="20" fill="#65B042"/>
<rect x="11.5" y="8.2561" width="1.24983" height="1.12781" fill="white"/>
<rect x="11.5" y="9.38477" width="1.24983" height="1.12782" fill="white"/>
<rect x="10.249" y="10.512" width="1.24983" height="1.12781" fill="white"/>
<rect x="11.5" y="10.512" width="1.24983" height="1.12781" fill="white"/>
<rect x="12.75" y="9.38477" width="1.24983" height="1.12782" fill="white"/>
<rect x="10.249" y="11.6404" width="1.24983" height="1.12782" fill="white"/>
<rect x="9" y="11.6404" width="1.24983" height="1.12781" fill="white"/>
<rect x="9" y="12.7673" width="1.24983" height="1.12781" fill="white"/>
<rect x="10.249" y="8.2561" width="1.24983" height="1.12781" fill="white"/>
<rect x="10.249" y="7.12891" width="1.24983" height="1.12782" fill="white"/>
<rect x="9" y="7.12891" width="1.24983" height="1.12782" fill="white"/>
<rect x="9" y="6" width="1.24983" height="1.12782" fill="white"/>
<path d="M22.3797 14.12C23.8197 14.12 24.6997 13.29 24.6997 12.25C24.6997 11.28 24.0597 10.83 23.2497 10.5L22.3297 10.1C21.7697 9.87 21.1597 9.64 21.1597 9.01C21.1597 8.42 21.6697 8.05 22.4297 8.05C23.1097 8.05 23.6097 8.29 24.0397 8.67L24.4797 8.13C23.9997 7.65 23.2797 7.32 22.4597 7.32C21.2097 7.32 20.3097 8.06 20.3097 9.06C20.3097 10.02 21.0697 10.49 21.7297 10.75L22.6697 11.16C23.3397 11.45 23.8497 11.65 23.8497 12.35C23.8497 12.96 23.3197 13.39 22.4197 13.39C21.6697 13.39 20.9897 13.06 20.4997 12.57L19.9997 13.15C20.5897 13.74 21.4197 14.12 22.3797 14.12ZM26.4658 14H30.6258V13.29H27.3058V10.91H30.0258V10.2H27.3058V8.14H30.5258V7.44H26.4658V14ZM32.1419 14H32.9419V10.57C32.9419 9.89 32.8619 9.19 32.8319 8.52H32.8519L33.4819 9.88L35.5819 14H36.5019V7.44H35.7019V10.84C35.7019 11.53 35.7819 12.27 35.8119 12.92H35.7919L35.1619 11.56L33.0619 7.44H32.1419V14ZM39.898 14H40.738V8.14H42.898V7.44H37.738V8.14H39.898V14Z" fill="white"/>
</svg>
