<svg width="17" height="17" viewBox="0 0 17 17" fill="none" xmlns="http://www.w3.org/2000/svg">
<path fill-rule="evenodd" clip-rule="evenodd" d="M16.9993 0H0.267578V16.7317H16.9993V0ZM5.99428 2.98792L5.65801 3.78252L7.69899 5.87832L5.65801 7.97412L5.6586 8.62749L7.69783 10.7139L5.6586 12.8004L5.99428 13.5956H10.7119L11.0476 12.8004L9.00836 10.7139L11.0476 8.62749L11.0482 7.97412L9.00721 5.87832L11.0482 3.78252L10.7119 2.98792H5.99428ZM9.60184 3.92435L8.3531 5.20663L7.10436 3.92435H9.60184ZM6.64897 8.29991L8.3531 6.55L10.0572 8.29991L8.3531 10.0435L6.64897 8.29991ZM7.10716 12.6592L8.3531 11.3844L9.59903 12.6592H7.10716Z" fill="#4D4C4F"/>
</svg>
