<svg width="17" height="17" viewBox="0 0 17 17" fill="none" xmlns="http://www.w3.org/2000/svg">
<rect x="0.387659" y="16.5091" width="14.0582" height="14.0582" transform="rotate(-90 0.387659 16.5091)" stroke="#65B042" stroke-width="0.775317"/>
<rect x="1.79004" y="14.8335" width="14.8335" height="14.8335" transform="rotate(-90 1.79004 14.8335)" fill="#65B042"/>
<rect x="9.8014" y="9.03868" width="0.725452" height="0.596409" transform="rotate(90 9.8014 9.03868)" fill="white" stroke="white" stroke-width="0.596409"/>
<rect x="8.60805" y="9.03868" width="0.725452" height="0.596408" transform="rotate(90 8.60805 9.03868)" fill="white" stroke="white" stroke-width="0.596408"/>
<rect x="7.41469" y="7.71617" width="0.725456" height="0.596407" transform="rotate(90 7.41469 7.71617)" fill="white" stroke="white" stroke-width="0.596407"/>
<rect x="7.41469" y="9.03868" width="0.725452" height="0.596408" transform="rotate(90 7.41469 9.03868)" fill="white" stroke="white" stroke-width="0.596408"/>
<rect x="8.60805" y="10.359" width="0.725453" height="0.596408" transform="rotate(90 8.60805 10.359)" fill="white" stroke="white" stroke-width="0.596408"/>
<rect x="6.22133" y="7.71617" width="0.725455" height="0.596408" transform="rotate(90 6.22133 7.71617)" fill="white" stroke="white" stroke-width="0.596408"/>
<rect x="6.22133" y="6.39342" width="0.725453" height="0.596408" transform="rotate(90 6.22133 6.39342)" fill="white" stroke="white" stroke-width="0.596408"/>
<rect x="5.0309" y="6.39342" width="0.725452" height="0.596409" transform="rotate(90 5.0309 6.39342)" fill="white" stroke="white" stroke-width="0.596409"/>
<rect x="9.80141" y="7.71617" width="0.725454" height="0.596408" transform="rotate(90 9.80141 7.71617)" fill="white" stroke="white" stroke-width="0.596408"/>
<rect x="10.9938" y="7.71617" width="0.725454" height="0.596408" transform="rotate(90 10.9938 7.71617)" fill="white" stroke="white" stroke-width="0.596408"/>
<rect x="10.9938" y="6.39342" width="0.725454" height="0.596408" transform="rotate(90 10.9938 6.39342)" fill="white" stroke="white" stroke-width="0.596408"/>
<rect x="12.1871" y="6.39391" width="0.725455" height="0.596408" transform="rotate(90 12.1871 6.39391)" fill="white" stroke="white" stroke-width="0.596408"/>
<rect x="12.1871" y="5.07237" width="0.725455" height="0.596408" transform="rotate(90 12.1871 5.07237)" fill="white" stroke="white" stroke-width="0.596408"/>
<rect x="13.3776" y="5.07237" width="0.725455" height="0.596408" transform="rotate(90 13.3776 5.07237)" fill="white" stroke="white" stroke-width="0.596408"/>
<rect x="13.3776" y="3.74986" width="0.725455" height="0.596408" transform="rotate(90 13.3776 3.74986)" fill="white" stroke="white" stroke-width="0.596408"/>
<rect x="14.5719" y="3.75035" width="0.725455" height="0.596408" transform="rotate(90 14.5719 3.75035)" fill="white" stroke="white" stroke-width="0.596408"/>
</svg>
