<svg width="18" height="17" viewBox="0 0 18 17" fill="none" xmlns="http://www.w3.org/2000/svg">
<path fill-rule="evenodd" clip-rule="evenodd" d="M0.634766 0H17.3665V16.7317H0.634766V0ZM9.14688 13.8771L9.29135 13.7327C11.8852 13.5893 13.9648 11.5006 14.1093 8.91716C14.1147 8.82197 14.1174 8.72611 14.1174 8.62965C14.1174 8.41817 14.2879 8.24569 14.4986 8.24247L14.5046 8.24235C14.7268 8.24235 14.8918 8.4377 14.8918 8.64221C14.8918 11.8911 12.2424 14.5276 8.99378 14.5276C5.74525 14.5276 3.10842 11.8907 3.10842 8.64221C3.10842 5.65476 5.34426 3.18509 8.23314 2.81627C8.14533 2.68763 8.14619 2.5143 8.23066 2.38567C8.35042 2.19028 8.60183 2.15568 8.77266 2.2698L8.77298 2.27001L9.61618 2.82795C9.71539 2.88898 9.79214 3.0062 9.79214 3.14405C9.79214 3.27267 9.73591 3.38755 9.64036 3.46369L9.63819 3.46542L9.63817 3.4654L8.79784 4.10783C8.72231 4.17675 8.6197 4.19018 8.55893 4.19018C8.43899 4.19018 8.32537 4.13118 8.25144 4.0384L8.25068 4.03746L8.25069 4.03745C8.14802 3.90628 8.14583 3.7351 8.2209 3.60221C5.77191 3.97535 3.89555 6.08641 3.89555 8.64222C3.89555 11.4515 6.18419 13.741 9.00644 13.7406H9.00646C9.10205 13.7406 9.19703 13.7379 9.29133 13.7327L9.14686 13.8771H9.14688ZM9.29133 13.7327L14.1093 8.91716L9.29135 13.7327L9.29133 13.7327ZM14.7554 7.31147C14.7554 7.1702 14.7011 7.05405 14.6118 6.97461C14.525 6.89743 14.4133 6.8618 14.306 6.8618C14.1987 6.8618 14.0869 6.89743 14.0002 6.97461C13.9109 7.05405 13.8566 7.1702 13.8566 7.31147C13.8566 7.45267 13.9109 7.56874 14.0002 7.6481C14.087 7.72519 14.1988 7.76076 14.306 7.76076C14.4132 7.76076 14.525 7.72519 14.6117 7.6481C14.7011 7.56874 14.7554 7.45267 14.7554 7.31147ZM14.3563 6.15449C14.3563 6.01329 14.3019 5.89722 14.2126 5.81786C14.1258 5.74077 14.0141 5.7052 13.9068 5.7052C13.7996 5.7052 13.6878 5.74077 13.6011 5.81786C13.5118 5.89722 13.4574 6.01329 13.4574 6.15449C13.4574 6.2957 13.5118 6.41177 13.6011 6.49113C13.6878 6.56822 13.7996 6.60379 13.9068 6.60379C14.0141 6.60379 14.1258 6.56822 14.2126 6.49113C14.3019 6.41177 14.3563 6.2957 14.3563 6.15449ZM13.6093 5.07236C13.6093 4.93109 13.555 4.81495 13.4657 4.73551C13.3789 4.65833 13.2672 4.6227 13.1599 4.6227C13.0526 4.6227 12.9408 4.65833 12.8541 4.73551C12.7648 4.81495 12.7105 4.93109 12.7105 5.07236C12.7105 5.21357 12.7648 5.32963 12.8541 5.40899C12.9409 5.48609 13.0527 5.52166 13.1599 5.52166C13.2671 5.52166 13.3789 5.48609 13.4656 5.40899C13.555 5.32963 13.6093 5.21357 13.6093 5.07236ZM12.5776 4.13955C12.5776 3.99828 12.5233 3.88213 12.434 3.8027C12.3472 3.72552 12.2354 3.68989 12.1282 3.68989C12.0209 3.68989 11.9091 3.72552 11.8223 3.8027C11.733 3.88213 11.6787 3.99828 11.6787 4.13955C11.6787 4.28075 11.7331 4.39682 11.8224 4.47618C11.9092 4.55327 12.0209 4.58885 12.1282 4.58885C12.2354 4.58885 12.3471 4.55327 12.4339 4.47618C12.5232 4.39682 12.5776 4.28075 12.5776 4.13955ZM11.3451 3.49268C11.3451 3.35141 11.2908 3.23526 11.2015 3.15583C11.1147 3.07865 11.003 3.04302 10.8957 3.04302C10.7884 3.04302 10.6766 3.07865 10.5899 3.15583C10.5006 3.23526 10.4463 3.35141 10.4463 3.49268C10.4463 3.63388 10.5006 3.74995 10.5899 3.82931C10.6767 3.9064 10.7885 3.94197 10.8957 3.94197C11.0029 3.94197 11.1147 3.9064 11.2014 3.82931C11.2908 3.74995 11.3451 3.63388 11.3451 3.49268ZM8.14764 6.20309L8.2448 6.10593C8.16785 6.02899 8.0698 5.99056 7.96032 5.99056C7.86772 5.99056 7.75538 6.02578 7.67562 6.10615L6.66804 7.11373C6.51465 7.26712 6.51415 7.51643 6.66782 7.66984L7.67525 8.68941L7.67584 8.68999C7.75278 8.76694 7.85083 8.80537 7.96032 8.80537C8.06904 8.80537 8.16747 8.76792 8.24496 8.68983C8.3218 8.6129 8.36017 8.51492 8.36017 8.40551C8.36017 8.29703 8.32289 8.19879 8.24515 8.12138L7.9038 7.7728H10.9347C11.1657 7.8062 11.3452 7.60049 11.3452 7.39821L11.3452 7.39588C11.3439 7.18769 11.1749 6.99835 10.9453 6.99835H7.9087L8.2448 6.66225C8.39834 6.50871 8.39869 6.25906 8.24455 6.10569L8.14764 6.20309ZM8.24496 8.68983L8.2448 8.68999L8.1478 8.593L8.24528 8.68951L8.24496 8.68983ZM10.2221 11.3149C10.1423 11.3952 10.03 11.4305 9.93741 11.4305C9.82798 11.4305 9.72998 11.3921 9.65305 11.3152L9.65317 11.3153L9.75081 11.2172L9.65293 11.3151L9.65305 11.3152C9.49904 11.1618 9.49943 10.9123 9.65293 10.7588L9.98902 10.4227H6.95238C6.7228 10.4227 6.55378 10.2333 6.55252 10.0251L6.5525 10.0228C6.5525 9.82052 6.73199 9.61482 6.96305 9.64822H9.99392L9.65258 9.29964C9.57484 9.22223 9.53755 9.12399 9.53755 9.01551C9.53755 8.9061 9.57593 8.80811 9.65276 8.73119L9.65245 8.73151L9.75082 8.82891L9.65293 8.73103L9.65276 8.73119C9.73025 8.6531 9.82869 8.61565 9.93741 8.61565C10.0469 8.61565 10.1449 8.65408 10.2219 8.73103L10.2225 8.73161L11.2299 9.75118C11.3836 9.90459 11.3831 10.1539 11.2297 10.3073L10.2221 11.3149Z" fill="#65B042"/>
</svg>
