<svg width="18" height="17" viewBox="0 0 18 17" fill="none" xmlns="http://www.w3.org/2000/svg">
<path fill-rule="evenodd" clip-rule="evenodd" d="M14.7656 0.832275H0.765625V14.8323H14.7656V0.832275ZM5.54177 3.57446C4.47562 3.57446 3.61133 4.43875 3.61133 5.5049V10.1598C3.61133 11.2259 4.47562 12.0902 5.54177 12.0902H9.98974C11.0559 12.0902 11.9202 11.2259 11.9202 10.1598V5.5049C11.9202 4.43875 11.0559 3.57446 9.98974 3.57446H5.54177ZM4.18635 5.5049C4.18635 4.75633 4.79319 4.14949 5.54177 4.14949H9.98974C10.7383 4.14949 11.3452 4.75633 11.3452 5.5049V10.1598C11.3452 10.9084 10.7383 11.5152 9.98974 11.5152H5.54177C4.79319 11.5152 4.18635 10.9084 4.18635 10.1598V5.5049ZM5.12671 5.73815C5.12671 5.41266 5.39056 5.1488 5.71605 5.1488H9.29622C9.90869 5.1488 10.4052 5.64531 10.4052 6.25778V9.44415C10.4052 10.0566 9.90869 10.5531 9.29622 10.5531H6.01788C5.5257 10.5531 5.12671 10.1541 5.12671 9.66195H5.70173C5.70173 9.83656 5.84328 9.9781 6.01788 9.9781H9.29622C9.59111 9.9781 9.83017 9.73904 9.83017 9.44415V6.25778C9.83017 5.96289 9.59111 5.72383 9.29622 5.72383H5.71605C5.70815 5.72383 5.70175 5.73022 5.70173 5.73812L5.70175 5.78604C5.70183 5.94483 5.57316 6.07362 5.41438 6.07369C5.25559 6.07377 5.1268 5.9451 5.12673 5.78631L5.12671 5.73815ZM5.41422 6.92964C5.57301 6.92964 5.70173 7.05836 5.70173 7.21715V7.26411C5.70173 7.42289 5.57301 7.55162 5.41422 7.55162C5.25543 7.55162 5.12671 7.42289 5.12671 7.26411V7.21715C5.12671 7.05836 5.25543 6.92964 5.41422 6.92964ZM5.41422 8.17253C5.57301 8.17253 5.70173 8.30126 5.70173 8.46005V8.507C5.70173 8.66579 5.57301 8.79451 5.41422 8.79451C5.25543 8.79451 5.12671 8.66579 5.12671 8.507V8.46005C5.12671 8.30126 5.25543 8.17253 5.41422 8.17253ZM7.76549 8.3103C8.01918 8.3103 8.22483 8.10465 8.22483 7.85097C8.22483 7.59728 8.01918 7.39163 7.76549 7.39163C7.51181 7.39163 7.30615 7.59728 7.30615 7.85097C7.30615 8.10465 7.51181 8.3103 7.76549 8.3103ZM7.76549 8.88533C8.33676 8.88533 8.79986 8.42223 8.79986 7.85097C8.79986 7.2797 8.33676 6.8166 7.76549 6.8166C7.19423 6.8166 6.73113 7.2797 6.73113 7.85097C6.73113 8.42223 7.19423 8.88533 7.76549 8.88533Z" fill="#C4C4C4"/>
</svg>
